<svg xmlns="http://www.w3.org/2000/svg" xmlns:v="https://svgstorm.com"
viewBox = "0 0 251 316"
width="251"
height="316">
<g fill="None" fill-opacity="0.0" stroke="#F8F9F9" stroke-opacity="1.00" stroke-width="0.3"><path d="
M 0.00 316.00 
L 251.00 316.00
L 251.00 0.00
L 0.00 0.00
L 0.00 316.00
M 78.00 86.00 
C 78.11 86.47 78.00 87.00 78.00 87.00
C 80.38 89.77 81.81 94.43 83.00 98.00
C 84.15 101.45 85.12 104.76 87.00 108.00
C 90.98 114.84 94.63 122.29 97.00 130.00
C 98.31 134.24 100.22 137.89 102.00 142.00
C 103.16 144.00 104.42 145.52 105.00 148.00
C 105.11 148.47 105.00 149.00 105.00 149.00
C 106.62 151.57 106.86 154.33 108.00 157.00
C 109.17 159.75 110.73 163.06 112.00 166.00
C 113.91 170.44 116.05 174.58 118.00 179.00
C 121.37 186.63 122.95 189.20 120.00 197.00
C 118.42 201.16 117.36 205.51 117.00 210.00
C 116.77 212.91 116.84 216.09 117.00 219.00
C 117.39 226.26 119.64 233.14 124.00 239.00
C 127.83 242.25 128.32 237.84 131.00 238.00
C 125.17 231.95 124.56 221.11 125.00 213.00
C 126.16 191.70 141.15 169.51 149.00 150.00
C 153.34 139.21 158.47 128.38 163.00 118.00
C 165.57 112.12 168.57 105.69 171.00 100.00
C 172.08 97.47 172.94 94.64 174.00 92.00
C 176.18 86.58 178.68 81.37 181.00 76.00
C 182.16 73.32 183.23 70.47 185.00 68.00
C 197.53 50.45 226.41 47.82 237.00 69.00
C 237.97 70.95 238.50 72.90 239.00 75.00
C 242.00 87.68 234.92 97.35 230.00 108.00
C 228.68 110.85 227.25 114.30 226.00 117.00
C 223.02 123.44 219.84 130.65 217.00 137.00
C 211.89 148.43 207.12 160.41 202.00 172.00
C 194.89 188.10 187.18 204.29 180.00 220.00
C 171.93 237.65 168.75 253.90 155.25 269.25 C 141.74 284.59 116.77 283.72 101.00 272.00
C 98.67 270.27 96.70 268.28 95.00 266.00
C 88.63 257.44 85.44 247.50 81.00 238.00
C 78.40 232.43 76.54 226.49 74.00 221.00
C 72.41 217.57 70.64 213.55 69.00 210.00
C 67.44 206.62 65.72 202.46 64.00 199.00
C 63.38 197.76 62.60 196.44 62.00 195.00
C 59.64 190.67 55.92 186.31 55.00 181.00
C 54.92 180.51 54.95 179.49 55.00 179.00
C 54.42 177.24 52.80 174.92 52.00 173.00
C 48.21 166.42 44.03 155.14 39.00 152.00
C 39.97 143.12 32.54 135.14 29.69 126.31 C 26.85 117.47 20.90 108.93 18.00 100.00
C 17.33 97.83 17.05 96.13 16.00 94.00
C 12.62 87.16 11.63 79.13 15.00 72.00
C 21.58 58.09 34.39 51.92 50.00 54.00
C 64.19 55.89 75.04 73.39 78.00 86.00
M 205.00 255.00 
C 205.49 255.96 209.12 259.27 210.00 260.00
C 218.12 265.80 220.73 272.88 223.31 282.69 C 225.89 292.51 216.07 283.41 215.00 282.00
C 209.31 289.20 217.00 303.93 227.23 296.23 C 237.45 288.53 223.25 281.17 222.00 274.00
C 229.62 274.54 235.96 278.95 236.99 287.01 C 238.03 295.06 233.22 302.35 224.93 303.93 C 216.63 305.50 209.84 300.28 207.08 292.92 C 204.31 285.57 213.54 276.61 213.22 271.78 C 212.90 266.95 199.79 257.60 197.26 261.26 C 194.73 264.92 213.68 270.96 208.07 277.07 C 202.47 283.18 203.89 290.74 199.23 297.23 C 194.57 303.71 185.84 305.91 178.77 302.23 C 171.70 298.55 168.68 290.83 171.78 283.78 C 174.88 276.73 182.50 272.19 190.00 275.00
C 190.38 275.22 191.00 275.00 191.00 275.00
C 191.56 270.50 183.85 263.83 188.77 258.77 C 193.69 253.71 192.33 248.41 200.00 247.00
C 198.84 230.33 219.66 247.25 204.00 250.00
C 203.77 251.83 204.07 253.47 205.00 255.00 Z"/>
</g>
<g fill="None" fill-opacity="0.0" stroke="#0CC5FC" stroke-opacity="1.00" stroke-width="0.3"><path d="
M 15.00 72.00 
C 12.82 78.82 13.81 87.42 16.00 94.00
C 17.05 96.13 17.33 97.83 18.00 100.00
C 21.88 108.68 27.25 117.42 31.00 126.00
C 30.03 122.68 28.86 119.28 30.00 116.00
C 33.39 117.06 29.41 120.82 32.00 123.00
C 33.01 119.01 33.84 116.12 39.00 118.00
C 37.96 111.24 42.23 109.64 47.08 108.08 C 51.94 106.52 53.67 104.00 59.00 104.00
C 60.15 101.36 55.97 100.24 58.00 98.00
C 64.28 104.97 67.33 91.50 65.00 87.00
C 71.81 86.32 63.97 77.58 66.00 73.00
C 67.40 75.17 66.94 78.02 70.00 75.00
C 68.97 77.21 68.91 80.18 72.00 78.00
C 73.32 82.34 74.72 87.47 79.00 90.00
C 78.56 88.84 78.01 88.37 78.00 87.00
C 78.00 87.00 78.11 86.47 78.00 86.00
C 69.52 75.42 66.04 57.55 50.00 54.00
C 34.39 51.92 21.58 58.09 15.00 72.00 Z"/>
</g>
<g fill="None" fill-opacity="0.0" stroke="#B6EFF5" stroke-opacity="1.00" stroke-width="0.3"><path d="
M 78.00 86.00 
C 75.04 73.39 64.19 55.89 50.00 54.00
C 66.04 57.55 69.52 75.42 78.00 86.00 Z"/>
</g>
<g fill="None" fill-opacity="0.0" stroke="#E62D7D" stroke-opacity="1.00" stroke-width="0.3"><path d="
M 185.00 68.00 
C 184.97 68.68 186.95 70.87 187.00 72.00
C 204.54 73.76 219.41 76.62 237.00 74.00
C 237.27 72.40 234.57 70.01 237.00 69.00
C 226.41 47.82 197.53 50.45 185.00 68.00 Z"/>
</g>
<g fill="None" fill-opacity="0.0" stroke="#C7267C" stroke-opacity="1.00" stroke-width="0.3"><path d="
M 181.00 76.00 
C 181.86 80.54 194.24 81.69 199.02 82.98 C 203.81 84.26 210.08 82.73 216.25 84.20 C 222.41 85.67 231.85 83.06 238.00 84.00
C 238.59 81.16 236.78 77.02 239.00 75.00
C 238.50 72.90 237.97 70.95 237.00 69.00
C 234.57 70.01 237.27 72.40 237.00 74.00
C 219.41 76.62 204.54 73.76 187.00 72.00
C 186.95 70.87 184.97 68.68 185.00 68.00
C 183.23 70.47 182.16 73.32 181.00 76.00 Z"/>
</g>
<g fill="None" fill-opacity="0.0" stroke="#A5EEF5" stroke-opacity="1.00" stroke-width="0.3"><path d="
M 16.00 94.00 
C 13.81 87.42 12.82 78.82 15.00 72.00
C 11.63 79.13 12.62 87.16 16.00 94.00 Z"/>
</g>
<g fill="None" fill-opacity="0.0" stroke="#05B9FC" stroke-opacity="1.00" stroke-width="0.3"><path d="
M 31.00 126.00 
C 33.00 132.86 36.99 139.92 40.00 146.00
C 38.91 142.72 38.99 139.54 37.00 137.00
C 42.36 136.04 49.15 135.40 56.00 134.00
C 57.39 131.24 59.06 129.79 62.00 129.00
C 61.41 126.09 63.59 123.94 63.00 121.00
C 71.85 119.00 74.56 111.14 79.00 105.00
C 80.47 107.70 84.28 106.02 87.00 108.00
C 85.12 104.76 84.15 101.45 83.00 98.00
C 81.81 95.43 80.08 92.85 79.00 90.00
C 74.72 87.47 73.32 82.34 72.00 78.00
C 68.91 80.18 68.97 77.21 70.00 75.00
C 66.94 78.02 67.40 75.17 66.00 73.00
C 63.97 77.58 71.81 86.32 65.00 87.00
C 67.33 91.50 64.28 104.97 58.00 98.00
C 55.97 100.24 60.15 101.36 59.00 104.00
C 53.67 104.00 51.94 106.52 47.08 108.08 C 42.23 109.64 37.96 111.24 39.00 118.00
C 33.84 116.12 33.01 119.01 32.00 123.00
C 29.41 120.82 33.39 117.06 30.00 116.00
C 28.86 119.28 30.03 122.68 31.00 126.00 Z"/>
</g>
<g fill="None" fill-opacity="0.0" stroke="#A7257C" stroke-opacity="1.00" stroke-width="0.3"><path d="
M 181.00 76.00 
C 178.68 81.37 176.18 86.58 174.00 92.00
C 173.88 93.14 175.40 96.22 176.00 98.00
C 182.33 98.29 190.32 98.99 196.08 100.07 C 201.84 101.14 207.90 102.74 213.23 103.21 C 218.56 103.69 226.85 101.28 230.00 108.00
C 234.92 97.35 242.00 87.68 239.00 75.00
C 236.78 77.02 238.59 81.16 238.00 84.00
C 231.85 83.06 222.41 85.67 216.25 84.20 C 210.08 82.73 203.81 84.26 199.02 82.98 C 194.24 81.69 181.86 80.54 181.00 76.00 Z"/>
</g>
<g fill="None" fill-opacity="0.0" stroke="#ABEDF5" stroke-opacity="1.00" stroke-width="0.3"><path d="
M 79.00 90.00 
C 80.08 92.85 81.81 95.43 83.00 98.00
C 81.81 94.43 80.38 89.77 78.00 87.00
C 78.01 88.37 78.56 88.84 79.00 90.00 Z"/>
</g>
<g fill="None" fill-opacity="0.0" stroke="#86227B" stroke-opacity="1.00" stroke-width="0.3"><path d="
M 171.00 100.00 
C 171.03 103.51 171.24 107.59 176.00 111.00
C 177.28 108.25 179.36 109.33 180.00 112.00
C 189.10 106.69 198.29 116.19 206.00 112.00
C 209.70 116.78 218.92 115.55 224.00 119.00
C 223.48 118.03 225.42 115.04 226.00 117.00
C 227.25 114.30 228.68 110.85 230.00 108.00
C 226.85 101.28 218.56 103.69 213.23 103.21 C 207.90 102.74 201.84 101.14 196.08 100.07 C 190.32 98.99 182.33 98.29 176.00 98.00
C 175.40 96.22 173.88 93.14 174.00 92.00
C 172.94 94.64 172.08 97.47 171.00 100.00 Z"/>
</g>
<g fill="None" fill-opacity="0.0" stroke="#B5EBF5" stroke-opacity="1.00" stroke-width="0.3"><path d="
M 52.00 173.00 
C 50.91 170.38 50.16 167.50 49.00 165.00
C 46.16 158.86 43.10 152.27 40.00 146.00
C 36.99 139.92 33.00 132.86 31.00 126.00
C 27.25 117.42 21.88 108.68 18.00 100.00
C 20.90 108.93 26.85 117.47 29.69 126.31 C 32.54 135.14 39.97 143.12 39.00 152.00
C 44.03 155.14 48.21 166.42 52.00 173.00 Z"/>
</g>
<g fill="None" fill-opacity="0.0" stroke="#6C2379" stroke-opacity="1.00" stroke-width="0.3"><path d="
M 163.00 118.00 
C 162.61 119.67 161.80 124.02 164.00 126.00
C 166.50 124.02 168.92 122.30 170.00 127.00
C 178.34 125.32 192.03 134.33 203.00 135.00
C 202.39 132.29 206.83 134.66 206.00 131.00
C 209.86 133.70 216.56 133.84 213.00 140.00
C 215.11 140.07 215.82 135.23 217.00 137.00
C 219.84 130.65 223.02 123.44 226.00 117.00
C 225.42 115.04 223.48 118.03 224.00 119.00
C 218.92 115.55 209.70 116.78 206.00 112.00
C 198.29 116.19 189.10 106.69 180.00 112.00
C 179.36 109.33 177.28 108.25 176.00 111.00
C 171.24 107.59 171.03 103.51 171.00 100.00
C 168.57 105.69 165.57 112.12 163.00 118.00 Z"/>
</g>
<g fill="None" fill-opacity="0.0" stroke="#04A6F4" stroke-opacity="1.00" stroke-width="0.3"><path d="
M 40.00 146.00 
C 43.10 152.27 46.16 158.86 49.00 165.00
C 51.20 166.04 59.63 158.53 60.00 156.00
C 67.17 159.11 73.82 142.36 76.00 149.00
C 74.14 142.64 83.52 143.21 82.00 138.00
C 85.61 141.76 84.02 133.32 88.08 134.08 C 92.15 134.84 94.45 132.49 97.00 136.00
C 97.33 132.91 93.00 129.34 95.00 127.00
C 92.59 122.21 90.64 111.50 87.00 108.00
C 84.28 106.02 80.47 107.70 79.00 105.00
C 74.56 111.14 71.85 119.00 63.00 121.00
C 63.59 123.94 61.41 126.09 62.00 129.00
C 59.06 129.79 57.39 131.24 56.00 134.00
C 49.15 135.40 42.36 136.04 37.00 137.00
C 38.99 139.54 38.91 142.72 40.00 146.00 Z"/>
</g>
<g fill="None" fill-opacity="0.0" stroke="#ACE5F4" stroke-opacity="1.00" stroke-width="0.3"><path d="
M 95.00 127.00 
C 95.55 128.09 96.56 129.15 97.00 130.00
C 94.63 122.29 90.98 114.84 87.00 108.00
C 90.64 111.50 92.59 122.21 95.00 127.00 Z"/>
</g>
<g fill="None" fill-opacity="0.0" stroke="#452172" stroke-opacity="1.00" stroke-width="0.3"><path d="
M 149.00 150.00 
C 149.84 149.63 151.13 150.30 152.00 150.00
C 151.98 153.41 147.90 155.25 149.00 159.00
C 152.17 156.40 154.10 155.37 156.00 160.00
C 159.38 158.68 164.57 159.46 165.00 164.00
C 169.40 162.46 179.57 162.79 181.00 167.00
C 182.38 161.26 186.35 169.57 189.00 165.00
C 191.38 167.83 198.03 169.58 202.00 172.00
C 207.12 160.41 211.89 148.43 217.00 137.00
C 215.82 135.23 215.11 140.07 213.00 140.00
C 216.56 133.84 209.86 133.70 206.00 131.00
C 206.83 134.66 202.39 132.29 203.00 135.00
C 192.03 134.33 178.34 125.32 170.00 127.00
C 168.92 122.30 166.50 124.02 164.00 126.00
C 161.80 124.02 162.61 119.67 163.00 118.00
C 158.47 128.38 153.34 139.21 149.00 150.00 Z"/>
</g>
<g fill="None" fill-opacity="0.0" stroke="#0B8DE5" stroke-opacity="1.00" stroke-width="0.3"><path d="
M 49.00 165.00 
C 50.16 167.50 50.91 170.38 52.00 173.00
C 52.80 174.92 54.42 177.24 55.00 179.00
C 55.19 177.26 56.33 175.90 56.00 174.00
C 58.72 178.72 62.90 167.45 66.00 172.00
C 69.85 161.56 81.84 160.93 86.00 152.00
C 90.14 153.48 95.71 151.08 95.00 146.00
C 100.39 147.00 101.13 145.12 105.00 149.00
C 105.00 149.00 105.11 148.47 105.00 148.00
C 103.49 146.11 102.97 144.24 102.00 142.00
C 100.22 137.89 98.31 134.24 97.00 130.00
C 96.56 129.15 95.55 128.09 95.00 127.00
C 93.00 129.34 97.33 132.91 97.00 136.00
C 94.45 132.49 92.15 134.84 88.08 134.08 C 84.02 133.32 85.61 141.76 82.00 138.00
C 83.52 143.21 74.14 142.64 76.00 149.00
C 73.82 142.36 67.17 159.11 60.00 156.00
C 59.63 158.53 51.20 166.04 49.00 165.00 Z"/>
</g>
<g fill="None" fill-opacity="0.0" stroke="#B8E0F1" stroke-opacity="1.00" stroke-width="0.3"><path d="
M 105.00 148.00 
C 104.42 145.52 103.16 144.00 102.00 142.00
C 102.97 144.24 103.49 146.11 105.00 148.00 Z"/>
</g>
<g fill="None" fill-opacity="0.0" stroke="#0D7DD8" stroke-opacity="1.00" stroke-width="0.3"><path d="
M 55.00 179.00 
C 54.95 179.49 54.92 180.51 55.00 181.00
C 56.39 183.84 58.75 187.17 60.00 190.00
C 59.88 188.03 61.80 186.20 61.00 184.00
C 63.24 182.44 66.99 183.85 65.00 180.00
C 71.97 181.98 71.46 169.75 76.00 174.00
C 82.47 163.81 93.86 158.34 105.00 155.00
C 104.72 159.60 105.83 155.38 108.00 157.00
C 106.86 154.33 106.62 151.57 105.00 149.00
C 101.13 145.12 100.39 147.00 95.00 146.00
C 95.71 151.08 90.14 153.48 86.00 152.00
C 81.84 160.93 69.85 161.56 66.00 172.00
C 62.90 167.45 58.72 178.72 56.00 174.00
C 56.33 175.90 55.19 177.26 55.00 179.00 Z"/>
</g>
<g fill="None" fill-opacity="0.0" stroke="#191C5E" stroke-opacity="1.00" stroke-width="0.3"><path d="
M 125.00 213.00 
C 125.08 214.86 127.01 218.41 126.00 221.00
C 128.03 219.23 126.53 215.52 127.00 213.00
C 129.05 215.67 135.78 212.57 134.00 209.00
C 136.23 211.29 141.04 209.89 142.00 214.00
C 144.62 211.44 147.51 211.30 152.00 212.00 C 156.49 212.70 155.78 209.40 159.00 209.00
C 159.23 214.12 162.77 211.30 167.22 211.78 C 171.67 212.25 175.03 214.69 179.00 214.00
C 177.47 216.60 177.17 219.17 177.00 223.00
C 178.27 222.44 178.25 220.15 180.00 220.00
C 187.18 204.29 194.89 188.10 202.00 172.00
C 198.03 169.58 191.38 167.83 189.00 165.00
C 186.35 169.57 182.38 161.26 181.00 167.00
C 179.57 162.79 169.40 162.46 165.00 164.00
C 164.57 159.46 159.38 158.68 156.00 160.00
C 154.10 155.37 152.17 156.40 149.00 159.00
C 147.90 155.25 151.98 153.41 152.00 150.00
C 151.13 150.30 149.84 149.63 149.00 150.00
C 141.15 169.51 126.16 191.70 125.00 213.00 Z"/>
</g>
<g fill="None" fill-opacity="0.0" stroke="#0D6AC8" stroke-opacity="1.00" stroke-width="0.3"><path d="
M 60.00 190.00 
C 60.68 191.54 61.32 193.36 62.00 195.00
C 62.60 196.44 63.38 197.76 64.00 199.00
C 64.40 195.14 71.28 189.88 75.00 190.00
C 69.49 188.95 77.26 185.83 78.92 186.14 C 80.57 186.44 86.75 182.58 86.00 179.00
C 92.80 179.72 95.17 171.77 102.00 172.00
C 98.86 167.80 110.45 169.29 112.00 166.00
C 110.73 163.06 109.17 159.75 108.00 157.00
C 105.83 155.38 104.72 159.60 105.00 155.00
C 93.86 158.34 82.47 163.81 76.00 174.00
C 71.46 169.75 71.97 181.98 65.00 180.00
C 66.99 183.85 63.24 182.44 61.00 184.00
C 61.80 186.20 59.88 188.03 60.00 190.00 Z"/>
</g>
<g fill="None" fill-opacity="0.0" stroke="#0F54B0" stroke-opacity="1.00" stroke-width="0.3"><path d="
M 64.00 199.00 
C 65.72 202.46 67.44 206.62 69.00 210.00
C 69.02 209.77 72.22 205.51 71.00 203.00
C 73.24 204.43 76.92 206.20 75.00 202.00
C 78.39 202.11 78.70 199.82 82.00 201.00
C 79.67 197.75 84.82 197.87 85.00 194.00
C 88.95 196.62 90.69 186.37 95.00 192.00
C 93.82 186.85 100.28 186.97 103.92 183.92 C 107.55 180.86 113.45 180.14 117.00 182.00
C 117.11 181.00 116.53 179.27 118.00 179.00
C 116.05 174.58 113.91 170.44 112.00 166.00
C 110.45 169.29 98.86 167.80 102.00 172.00
C 95.17 171.77 92.80 179.72 86.00 179.00
C 86.75 182.58 80.57 186.44 78.92 186.14 C 77.26 185.83 69.49 188.95 75.00 190.00
C 71.28 189.88 64.40 195.14 64.00 199.00 Z"/>
</g>
<g fill="None" fill-opacity="0.0" stroke="#0E3E90" stroke-opacity="1.00" stroke-width="0.3"><path d="
M 69.00 210.00 
C 70.64 213.55 72.41 217.57 74.00 221.00
C 74.27 221.17 77.80 219.68 79.00 221.00
C 84.46 216.15 88.65 213.27 94.25 208.25 C 99.86 203.24 110.74 202.17 113.00 196.00
C 115.95 198.97 117.54 196.25 120.00 197.00
C 122.95 189.20 121.37 186.63 118.00 179.00
C 116.53 179.27 117.11 181.00 117.00 182.00
C 113.45 180.14 107.55 180.86 103.92 183.92 C 100.28 186.97 93.82 186.85 95.00 192.00
C 90.69 186.37 88.95 196.62 85.00 194.00
C 84.82 197.87 79.67 197.75 82.00 201.00
C 78.70 199.82 78.39 202.11 75.00 202.00
C 76.92 206.20 73.24 204.43 71.00 203.00
C 72.22 205.51 69.02 209.77 69.00 210.00 Z"/>
</g>
<g fill="None" fill-opacity="0.0" stroke="#A9D4E9" stroke-opacity="1.00" stroke-width="0.3"><path d="
M 62.00 195.00 
C 61.32 193.36 60.68 191.54 60.00 190.00
C 58.75 187.17 56.39 183.84 55.00 181.00
C 55.92 186.31 59.64 190.67 62.00 195.00 Z"/>
</g>
<g fill="None" fill-opacity="0.0" stroke="#0B286D" stroke-opacity="1.00" stroke-width="0.3"><path d="
M 74.00 221.00 
C 76.54 226.49 78.40 232.43 81.00 238.00
C 81.57 238.42 83.40 238.25 84.00 239.00
C 78.41 231.73 97.59 232.38 91.00 228.00
C 101.15 228.34 105.78 213.79 115.00 218.00
C 115.47 216.12 113.94 213.07 116.00 212.00
C 116.25 211.29 116.81 210.49 117.00 210.00
C 117.36 205.51 118.42 201.16 120.00 197.00
C 117.54 196.25 115.95 198.97 113.00 196.00
C 110.74 202.17 99.86 203.24 94.25 208.25 C 88.65 213.27 84.46 216.15 79.00 221.00
C 77.80 219.68 74.27 221.17 74.00 221.00 Z"/>
</g>
<g fill="None" fill-opacity="0.0" stroke="#041442" stroke-opacity="1.00" stroke-width="0.3"><path d="
M 125.00 213.00 
C 124.56 221.11 125.17 231.95 131.00 238.00
C 131.78 238.81 132.37 239.00 133.00 240.00
C 135.71 242.73 140.23 244.53 138.00 249.00
C 134.61 248.82 130.72 247.11 129.00 244.00
C 126.91 242.73 125.40 240.88 124.00 239.00
C 119.64 233.14 117.39 226.26 117.00 219.00
C 116.69 217.06 115.61 214.63 116.00 212.00
C 113.94 213.07 115.47 216.12 115.00 218.00
C 105.78 213.79 101.15 228.34 91.00 228.00
C 97.59 232.38 78.41 231.73 84.00 239.00
C 83.40 238.25 81.57 238.42 81.00 238.00
C 85.44 247.50 88.63 257.44 95.00 266.00
C 96.56 267.79 99.26 270.48 101.00 272.00
C 116.77 283.72 141.74 284.59 155.25 269.25 C 168.75 253.90 171.93 237.65 180.00 220.00
C 178.25 220.15 178.27 222.44 177.00 223.00
C 177.17 219.17 177.47 216.60 179.00 214.00
C 175.03 214.69 171.67 212.25 167.22 211.78 C 162.77 211.30 159.23 214.12 159.00 209.00
C 155.78 209.40 156.49 212.70 152.00 212.00 C 147.51 211.30 144.62 211.44 142.00 214.00
C 141.04 209.89 136.23 211.29 134.00 209.00
C 135.78 212.57 129.05 215.67 127.00 213.00
C 126.53 215.52 128.03 219.23 126.00 221.00
C 127.01 218.41 125.08 214.86 125.00 213.00 Z"/>
</g>
<g fill="None" fill-opacity="0.0" stroke="#516283" stroke-opacity="1.00" stroke-width="0.3"><path d="
M 116.00 212.00 
C 115.61 214.63 116.69 217.06 117.00 219.00
C 116.84 216.09 116.77 212.91 117.00 210.00
C 116.81 210.49 116.25 211.29 116.00 212.00 Z"/>
</g>
<g fill="None" fill-opacity="0.0" stroke="#8893A4" stroke-opacity="1.00" stroke-width="0.3"><path d="
M 124.00 239.00 
C 125.40 240.88 126.91 242.73 129.00 244.00
C 129.56 244.34 130.53 244.63 131.00 245.00
C 133.26 245.42 134.43 244.32 134.00 242.00
C 133.49 241.45 133.37 240.59 133.00 240.00
C 132.37 239.00 131.78 238.81 131.00 238.00
C 128.32 237.84 127.83 242.25 124.00 239.00 Z"/>
</g>
<g fill="None" fill-opacity="0.0" stroke="#0C1A44" stroke-opacity="1.00" stroke-width="0.3"><path d="
M 191.00 275.00 
C 190.80 277.75 189.20 279.90 188.00 282.00
C 182.64 291.42 191.08 291.81 195.00 284.00
C 199.17 291.97 190.29 300.19 182.33 297.67 C 174.37 295.15 175.24 281.20 184.00 281.00
C 187.45 279.37 187.95 278.56 190.00 275.00
C 182.50 272.19 174.88 276.73 171.78 283.78 C 168.68 290.83 171.70 298.55 178.77 302.23 C 185.84 305.91 194.57 303.71 199.23 297.23 C 203.89 290.74 202.47 283.18 208.07 277.07 C 213.68 270.96 194.73 264.92 197.26 261.26 C 199.79 257.60 212.90 266.95 213.22 271.78 C 213.54 276.61 204.31 285.57 207.08 292.92 C 209.84 300.28 216.63 305.50 224.93 303.93 C 233.22 302.35 238.03 295.06 236.99 287.01 C 235.96 278.95 229.62 274.54 222.00 274.00
C 223.25 281.17 237.45 288.53 227.23 296.23 C 217.00 303.93 209.31 289.20 215.00 282.00
C 216.07 283.41 225.89 292.51 223.31 282.69 C 220.73 272.88 218.12 265.80 210.00 260.00
C 208.23 258.73 205.85 257.06 205.00 255.00
C 204.07 253.47 203.77 251.83 204.00 250.00
C 219.66 247.25 198.84 230.33 200.00 247.00
C 192.33 248.41 193.69 253.71 188.77 258.77 C 183.85 263.83 191.56 270.50 191.00 275.00
M 199.00 274.00 
C 202.75 279.93 195.10 278.95 199.00 274.00 Z"/>
</g>
<g fill="None" fill-opacity="0.0" stroke="#2F3E60" stroke-opacity="1.00" stroke-width="0.3"><path d="
M 134.00 242.00 
C 137.36 245.67 134.68 247.84 131.00 245.00
C 130.53 244.63 129.56 244.34 129.00 244.00
C 130.72 247.11 134.61 248.82 138.00 249.00
C 140.23 244.53 135.71 242.73 133.00 240.00
C 133.37 240.59 133.49 241.45 134.00 242.00 Z"/>
</g>
<g fill="None" fill-opacity="0.0" stroke="#52627C" stroke-opacity="1.00" stroke-width="0.3"><path d="
M 131.00 245.00 
C 134.68 247.84 137.36 245.67 134.00 242.00
C 134.43 244.32 133.26 245.42 131.00 245.00 Z"/>
</g>
<g fill="None" fill-opacity="0.0" stroke="#767B8A" stroke-opacity="1.00" stroke-width="0.3"><path d="
M 210.00 260.00 
C 209.12 259.27 205.49 255.96 205.00 255.00
C 205.85 257.06 208.23 258.73 210.00 260.00 Z"/>
</g>
<g fill="None" fill-opacity="0.0" stroke="#6F7288" stroke-opacity="1.00" stroke-width="0.3"><path d="
M 101.00 272.00 
C 99.26 270.48 96.56 267.79 95.00 266.00
C 96.70 268.28 98.67 270.27 101.00 272.00 Z"/>
</g>
<g fill="None" fill-opacity="0.0" stroke="#AAB6C6" stroke-opacity="1.00" stroke-width="0.3"><path d="
M 199.00 274.00 
C 195.10 278.95 202.75 279.93 199.00 274.00 Z"/>
</g>
<g fill="None" fill-opacity="0.0" stroke="#8591AA" stroke-opacity="1.00" stroke-width="0.3"><path d="
M 184.00 281.00 
C 185.55 280.91 187.14 280.60 188.00 282.00
C 189.20 279.90 190.80 277.75 191.00 275.00
C 191.00 275.00 190.38 275.22 190.00 275.00
C 187.95 278.56 187.45 279.37 184.00 281.00 Z"/>
</g>
<g fill="None" fill-opacity="0.0" stroke="#E2E5EA" stroke-opacity="1.00" stroke-width="0.3"><path d="
M 188.00 282.00 
C 187.14 280.60 185.55 280.91 184.00 281.00
C 175.24 281.20 174.37 295.15 182.33 297.67 C 190.29 300.19 199.17 291.97 195.00 284.00
C 191.08 291.81 182.64 291.42 188.00 282.00 Z"/>
</g>
<g fill="#F8F9F9" fill-opacity="1.00" stroke="None">
<path d="
M 0.00 316.00 
L 251.00 316.00
L 251.00 0.00
L 0.00 0.00
L 0.00 316.00
M 78.00 86.00 
C 78.11 86.47 78.00 87.00 78.00 87.00
C 80.38 89.77 81.81 94.43 83.00 98.00
C 84.15 101.45 85.12 104.76 87.00 108.00
C 90.98 114.84 94.63 122.29 97.00 130.00
C 98.31 134.24 100.22 137.89 102.00 142.00
C 103.16 144.00 104.42 145.52 105.00 148.00
C 105.11 148.47 105.00 149.00 105.00 149.00
C 106.62 151.57 106.86 154.33 108.00 157.00
C 109.17 159.75 110.73 163.06 112.00 166.00
C 113.91 170.44 116.05 174.58 118.00 179.00
C 121.37 186.63 122.95 189.20 120.00 197.00
C 118.42 201.16 117.36 205.51 117.00 210.00
C 116.77 212.91 116.84 216.09 117.00 219.00
C 117.39 226.26 119.64 233.14 124.00 239.00
C 127.83 242.25 128.32 237.84 131.00 238.00
C 125.17 231.95 124.56 221.11 125.00 213.00
C 126.16 191.70 141.15 169.51 149.00 150.00
C 153.34 139.21 158.47 128.38 163.00 118.00
C 165.57 112.12 168.57 105.69 171.00 100.00
C 172.08 97.47 172.94 94.64 174.00 92.00
C 176.18 86.58 178.68 81.37 181.00 76.00
C 182.16 73.32 183.23 70.47 185.00 68.00
C 197.53 50.45 226.41 47.82 237.00 69.00
C 237.97 70.95 238.50 72.90 239.00 75.00
C 242.00 87.68 234.92 97.35 230.00 108.00
C 228.68 110.85 227.25 114.30 226.00 117.00
C 223.02 123.44 219.84 130.65 217.00 137.00
C 211.89 148.43 207.12 160.41 202.00 172.00
C 194.89 188.10 187.18 204.29 180.00 220.00
C 171.93 237.65 168.75 253.90 155.25 269.25 C 141.74 284.59 116.77 283.72 101.00 272.00
C 98.67 270.27 96.70 268.28 95.00 266.00
C 88.63 257.44 85.44 247.50 81.00 238.00
C 78.40 232.43 76.54 226.49 74.00 221.00
C 72.41 217.57 70.64 213.55 69.00 210.00
C 67.44 206.62 65.72 202.46 64.00 199.00
C 63.38 197.76 62.60 196.44 62.00 195.00
C 59.64 190.67 55.92 186.31 55.00 181.00
C 54.92 180.51 54.95 179.49 55.00 179.00
C 54.42 177.24 52.80 174.92 52.00 173.00
C 48.21 166.42 44.03 155.14 39.00 152.00
C 39.97 143.12 32.54 135.14 29.69 126.31 C 26.85 117.47 20.90 108.93 18.00 100.00
C 17.33 97.83 17.05 96.13 16.00 94.00
C 12.62 87.16 11.63 79.13 15.00 72.00
C 21.58 58.09 34.39 51.92 50.00 54.00
C 64.19 55.89 75.04 73.39 78.00 86.00
M 205.00 255.00 
C 205.49 255.96 209.12 259.27 210.00 260.00
C 218.12 265.80 220.73 272.88 223.31 282.69 C 225.89 292.51 216.07 283.41 215.00 282.00
C 209.31 289.20 217.00 303.93 227.23 296.23 C 237.45 288.53 223.25 281.17 222.00 274.00
C 229.62 274.54 235.96 278.95 236.99 287.01 C 238.03 295.06 233.22 302.35 224.93 303.93 C 216.63 305.50 209.84 300.28 207.08 292.92 C 204.31 285.57 213.54 276.61 213.22 271.78 C 212.90 266.95 199.79 257.60 197.26 261.26 C 194.73 264.92 213.68 270.96 208.07 277.07 C 202.47 283.18 203.89 290.74 199.23 297.23 C 194.57 303.71 185.84 305.91 178.77 302.23 C 171.70 298.55 168.68 290.83 171.78 283.78 C 174.88 276.73 182.50 272.19 190.00 275.00
C 190.38 275.22 191.00 275.00 191.00 275.00
C 191.56 270.50 183.85 263.83 188.77 258.77 C 193.69 253.71 192.33 248.41 200.00 247.00
C 198.84 230.33 219.66 247.25 204.00 250.00
C 203.77 251.83 204.07 253.47 205.00 255.00 Z"/>
</g>
<g fill="#0CC5FC" fill-opacity="1.00" stroke="None">
<path d="
M 15.00 72.00 
C 12.82 78.82 13.81 87.42 16.00 94.00
C 17.05 96.13 17.33 97.83 18.00 100.00
C 21.88 108.68 27.25 117.42 31.00 126.00
C 30.03 122.68 28.86 119.28 30.00 116.00
C 33.39 117.06 29.41 120.82 32.00 123.00
C 33.01 119.01 33.84 116.12 39.00 118.00
C 37.96 111.24 42.23 109.64 47.08 108.08 C 51.94 106.52 53.67 104.00 59.00 104.00
C 60.15 101.36 55.97 100.24 58.00 98.00
C 64.28 104.97 67.33 91.50 65.00 87.00
C 71.81 86.32 63.97 77.58 66.00 73.00
C 67.40 75.17 66.94 78.02 70.00 75.00
C 68.97 77.21 68.91 80.18 72.00 78.00
C 73.32 82.34 74.72 87.47 79.00 90.00
C 78.56 88.84 78.01 88.37 78.00 87.00
C 78.00 87.00 78.11 86.47 78.00 86.00
C 69.52 75.42 66.04 57.55 50.00 54.00
C 34.39 51.92 21.58 58.09 15.00 72.00 Z"/>
</g>
<g fill="#B6EFF5" fill-opacity="1.00" stroke="None">
<path d="
M 78.00 86.00 
C 75.04 73.39 64.19 55.89 50.00 54.00
C 66.04 57.55 69.52 75.42 78.00 86.00 Z"/>
</g>
<g fill="#E62D7D" fill-opacity="1.00" stroke="None">
<path d="
M 185.00 68.00 
C 184.97 68.68 186.95 70.87 187.00 72.00
C 204.54 73.76 219.41 76.62 237.00 74.00
C 237.27 72.40 234.57 70.01 237.00 69.00
C 226.41 47.82 197.53 50.45 185.00 68.00 Z"/>
</g>
<g fill="#C7267C" fill-opacity="1.00" stroke="None">
<path d="
M 181.00 76.00 
C 181.86 80.54 194.24 81.69 199.02 82.98 C 203.81 84.26 210.08 82.73 216.25 84.20 C 222.41 85.67 231.85 83.06 238.00 84.00
C 238.59 81.16 236.78 77.02 239.00 75.00
C 238.50 72.90 237.97 70.95 237.00 69.00
C 234.57 70.01 237.27 72.40 237.00 74.00
C 219.41 76.62 204.54 73.76 187.00 72.00
C 186.95 70.87 184.97 68.68 185.00 68.00
C 183.23 70.47 182.16 73.32 181.00 76.00 Z"/>
</g>
<g fill="#A5EEF5" fill-opacity="1.00" stroke="None">
<path d="
M 16.00 94.00 
C 13.81 87.42 12.82 78.82 15.00 72.00
C 11.63 79.13 12.62 87.16 16.00 94.00 Z"/>
</g>
<g fill="#05B9FC" fill-opacity="1.00" stroke="None">
<path d="
M 31.00 126.00 
C 33.00 132.86 36.99 139.92 40.00 146.00
C 38.91 142.72 38.99 139.54 37.00 137.00
C 42.36 136.04 49.15 135.40 56.00 134.00
C 57.39 131.24 59.06 129.79 62.00 129.00
C 61.41 126.09 63.59 123.94 63.00 121.00
C 71.85 119.00 74.56 111.14 79.00 105.00
C 80.47 107.70 84.28 106.02 87.00 108.00
C 85.12 104.76 84.15 101.45 83.00 98.00
C 81.81 95.43 80.08 92.85 79.00 90.00
C 74.72 87.47 73.32 82.34 72.00 78.00
C 68.91 80.18 68.97 77.21 70.00 75.00
C 66.94 78.02 67.40 75.17 66.00 73.00
C 63.97 77.58 71.81 86.32 65.00 87.00
C 67.33 91.50 64.28 104.97 58.00 98.00
C 55.97 100.24 60.15 101.36 59.00 104.00
C 53.67 104.00 51.94 106.52 47.08 108.08 C 42.23 109.64 37.96 111.24 39.00 118.00
C 33.84 116.12 33.01 119.01 32.00 123.00
C 29.41 120.82 33.39 117.06 30.00 116.00
C 28.86 119.28 30.03 122.68 31.00 126.00 Z"/>
</g>
<g fill="#A7257C" fill-opacity="1.00" stroke="None">
<path d="
M 181.00 76.00 
C 178.68 81.37 176.18 86.58 174.00 92.00
C 173.88 93.14 175.40 96.22 176.00 98.00
C 182.33 98.29 190.32 98.99 196.08 100.07 C 201.84 101.14 207.90 102.74 213.23 103.21 C 218.56 103.69 226.85 101.28 230.00 108.00
C 234.92 97.35 242.00 87.68 239.00 75.00
C 236.78 77.02 238.59 81.16 238.00 84.00
C 231.85 83.06 222.41 85.67 216.25 84.20 C 210.08 82.73 203.81 84.26 199.02 82.98 C 194.24 81.69 181.86 80.54 181.00 76.00 Z"/>
</g>
<g fill="#ABEDF5" fill-opacity="1.00" stroke="None">
<path d="
M 79.00 90.00 
C 80.08 92.85 81.81 95.43 83.00 98.00
C 81.81 94.43 80.38 89.77 78.00 87.00
C 78.01 88.37 78.56 88.84 79.00 90.00 Z"/>
</g>
<g fill="#86227B" fill-opacity="1.00" stroke="None">
<path d="
M 171.00 100.00 
C 171.03 103.51 171.24 107.59 176.00 111.00
C 177.28 108.25 179.36 109.33 180.00 112.00
C 189.10 106.69 198.29 116.19 206.00 112.00
C 209.70 116.78 218.92 115.55 224.00 119.00
C 223.48 118.03 225.42 115.04 226.00 117.00
C 227.25 114.30 228.68 110.85 230.00 108.00
C 226.85 101.28 218.56 103.69 213.23 103.21 C 207.90 102.74 201.84 101.14 196.08 100.07 C 190.32 98.99 182.33 98.29 176.00 98.00
C 175.40 96.22 173.88 93.14 174.00 92.00
C 172.94 94.64 172.08 97.47 171.00 100.00 Z"/>
</g>
<g fill="#B5EBF5" fill-opacity="1.00" stroke="None">
<path d="
M 52.00 173.00 
C 50.91 170.38 50.16 167.50 49.00 165.00
C 46.16 158.86 43.10 152.27 40.00 146.00
C 36.99 139.92 33.00 132.86 31.00 126.00
C 27.25 117.42 21.88 108.68 18.00 100.00
C 20.90 108.93 26.85 117.47 29.69 126.31 C 32.54 135.14 39.97 143.12 39.00 152.00
C 44.03 155.14 48.21 166.42 52.00 173.00 Z"/>
</g>
<g fill="#6C2379" fill-opacity="1.00" stroke="None">
<path d="
M 163.00 118.00 
C 162.61 119.67 161.80 124.02 164.00 126.00
C 166.50 124.02 168.92 122.30 170.00 127.00
C 178.34 125.32 192.03 134.33 203.00 135.00
C 202.39 132.29 206.83 134.66 206.00 131.00
C 209.86 133.70 216.56 133.84 213.00 140.00
C 215.11 140.07 215.82 135.23 217.00 137.00
C 219.84 130.65 223.02 123.44 226.00 117.00
C 225.42 115.04 223.48 118.03 224.00 119.00
C 218.92 115.55 209.70 116.78 206.00 112.00
C 198.29 116.19 189.10 106.69 180.00 112.00
C 179.36 109.33 177.28 108.25 176.00 111.00
C 171.24 107.59 171.03 103.51 171.00 100.00
C 168.57 105.69 165.57 112.12 163.00 118.00 Z"/>
</g>
<g fill="#04A6F4" fill-opacity="1.00" stroke="None">
<path d="
M 40.00 146.00 
C 43.10 152.27 46.16 158.86 49.00 165.00
C 51.20 166.04 59.63 158.53 60.00 156.00
C 67.17 159.11 73.82 142.36 76.00 149.00
C 74.14 142.64 83.52 143.21 82.00 138.00
C 85.61 141.76 84.02 133.32 88.08 134.08 C 92.15 134.84 94.45 132.49 97.00 136.00
C 97.33 132.91 93.00 129.34 95.00 127.00
C 92.59 122.21 90.64 111.50 87.00 108.00
C 84.28 106.02 80.47 107.70 79.00 105.00
C 74.56 111.14 71.85 119.00 63.00 121.00
C 63.59 123.94 61.41 126.09 62.00 129.00
C 59.06 129.79 57.39 131.24 56.00 134.00
C 49.15 135.40 42.36 136.04 37.00 137.00
C 38.99 139.54 38.91 142.72 40.00 146.00 Z"/>
</g>
<g fill="#ACE5F4" fill-opacity="1.00" stroke="None">
<path d="
M 95.00 127.00 
C 95.55 128.09 96.56 129.15 97.00 130.00
C 94.63 122.29 90.98 114.84 87.00 108.00
C 90.64 111.50 92.59 122.21 95.00 127.00 Z"/>
</g>
<g fill="#452172" fill-opacity="1.00" stroke="None">
<path d="
M 149.00 150.00 
C 149.84 149.63 151.13 150.30 152.00 150.00
C 151.98 153.41 147.90 155.25 149.00 159.00
C 152.17 156.40 154.10 155.37 156.00 160.00
C 159.38 158.68 164.57 159.46 165.00 164.00
C 169.40 162.46 179.57 162.79 181.00 167.00
C 182.38 161.26 186.35 169.57 189.00 165.00
C 191.38 167.83 198.03 169.58 202.00 172.00
C 207.12 160.41 211.89 148.43 217.00 137.00
C 215.82 135.23 215.11 140.07 213.00 140.00
C 216.56 133.84 209.86 133.70 206.00 131.00
C 206.83 134.66 202.39 132.29 203.00 135.00
C 192.03 134.33 178.34 125.32 170.00 127.00
C 168.92 122.30 166.50 124.02 164.00 126.00
C 161.80 124.02 162.61 119.67 163.00 118.00
C 158.47 128.38 153.34 139.21 149.00 150.00 Z"/>
</g>
<g fill="#0B8DE5" fill-opacity="1.00" stroke="None">
<path d="
M 49.00 165.00 
C 50.16 167.50 50.91 170.38 52.00 173.00
C 52.80 174.92 54.42 177.24 55.00 179.00
C 55.19 177.26 56.33 175.90 56.00 174.00
C 58.72 178.72 62.90 167.45 66.00 172.00
C 69.85 161.56 81.84 160.93 86.00 152.00
C 90.14 153.48 95.71 151.08 95.00 146.00
C 100.39 147.00 101.13 145.12 105.00 149.00
C 105.00 149.00 105.11 148.47 105.00 148.00
C 103.49 146.11 102.97 144.24 102.00 142.00
C 100.22 137.89 98.31 134.24 97.00 130.00
C 96.56 129.15 95.55 128.09 95.00 127.00
C 93.00 129.34 97.33 132.91 97.00 136.00
C 94.45 132.49 92.15 134.84 88.08 134.08 C 84.02 133.32 85.61 141.76 82.00 138.00
C 83.52 143.21 74.14 142.64 76.00 149.00
C 73.82 142.36 67.17 159.11 60.00 156.00
C 59.63 158.53 51.20 166.04 49.00 165.00 Z"/>
</g>
<g fill="#B8E0F1" fill-opacity="1.00" stroke="None">
<path d="
M 105.00 148.00 
C 104.42 145.52 103.16 144.00 102.00 142.00
C 102.97 144.24 103.49 146.11 105.00 148.00 Z"/>
</g>
<g fill="#0D7DD8" fill-opacity="1.00" stroke="None">
<path d="
M 55.00 179.00 
C 54.95 179.49 54.92 180.51 55.00 181.00
C 56.39 183.84 58.75 187.17 60.00 190.00
C 59.88 188.03 61.80 186.20 61.00 184.00
C 63.24 182.44 66.99 183.85 65.00 180.00
C 71.97 181.98 71.46 169.75 76.00 174.00
C 82.47 163.81 93.86 158.34 105.00 155.00
C 104.72 159.60 105.83 155.38 108.00 157.00
C 106.86 154.33 106.62 151.57 105.00 149.00
C 101.13 145.12 100.39 147.00 95.00 146.00
C 95.71 151.08 90.14 153.48 86.00 152.00
C 81.84 160.93 69.85 161.56 66.00 172.00
C 62.90 167.45 58.72 178.72 56.00 174.00
C 56.33 175.90 55.19 177.26 55.00 179.00 Z"/>
</g>
<g fill="#191C5E" fill-opacity="1.00" stroke="None">
<path d="
M 125.00 213.00 
C 125.08 214.86 127.01 218.41 126.00 221.00
C 128.03 219.23 126.53 215.52 127.00 213.00
C 129.05 215.67 135.78 212.57 134.00 209.00
C 136.23 211.29 141.04 209.89 142.00 214.00
C 144.62 211.44 147.51 211.30 152.00 212.00 C 156.49 212.70 155.78 209.40 159.00 209.00
C 159.23 214.12 162.77 211.30 167.22 211.78 C 171.67 212.25 175.03 214.69 179.00 214.00
C 177.47 216.60 177.17 219.17 177.00 223.00
C 178.27 222.44 178.25 220.15 180.00 220.00
C 187.18 204.29 194.89 188.10 202.00 172.00
C 198.03 169.58 191.38 167.83 189.00 165.00
C 186.35 169.57 182.38 161.26 181.00 167.00
C 179.57 162.79 169.40 162.46 165.00 164.00
C 164.57 159.46 159.38 158.68 156.00 160.00
C 154.10 155.37 152.17 156.40 149.00 159.00
C 147.90 155.25 151.98 153.41 152.00 150.00
C 151.13 150.30 149.84 149.63 149.00 150.00
C 141.15 169.51 126.16 191.70 125.00 213.00 Z"/>
</g>
<g fill="#0D6AC8" fill-opacity="1.00" stroke="None">
<path d="
M 60.00 190.00 
C 60.68 191.54 61.32 193.36 62.00 195.00
C 62.60 196.44 63.38 197.76 64.00 199.00
C 64.40 195.14 71.28 189.88 75.00 190.00
C 69.49 188.95 77.26 185.83 78.92 186.14 C 80.57 186.44 86.75 182.58 86.00 179.00
C 92.80 179.72 95.17 171.77 102.00 172.00
C 98.86 167.80 110.45 169.29 112.00 166.00
C 110.73 163.06 109.17 159.75 108.00 157.00
C 105.83 155.38 104.72 159.60 105.00 155.00
C 93.86 158.34 82.47 163.81 76.00 174.00
C 71.46 169.75 71.97 181.98 65.00 180.00
C 66.99 183.85 63.24 182.44 61.00 184.00
C 61.80 186.20 59.88 188.03 60.00 190.00 Z"/>
</g>
<g fill="#0F54B0" fill-opacity="1.00" stroke="None">
<path d="
M 64.00 199.00 
C 65.72 202.46 67.44 206.62 69.00 210.00
C 69.02 209.77 72.22 205.51 71.00 203.00
C 73.24 204.43 76.92 206.20 75.00 202.00
C 78.39 202.11 78.70 199.82 82.00 201.00
C 79.67 197.75 84.82 197.87 85.00 194.00
C 88.95 196.62 90.69 186.37 95.00 192.00
C 93.82 186.85 100.28 186.97 103.92 183.92 C 107.55 180.86 113.45 180.14 117.00 182.00
C 117.11 181.00 116.53 179.27 118.00 179.00
C 116.05 174.58 113.91 170.44 112.00 166.00
C 110.45 169.29 98.86 167.80 102.00 172.00
C 95.17 171.77 92.80 179.72 86.00 179.00
C 86.75 182.58 80.57 186.44 78.92 186.14 C 77.26 185.83 69.49 188.95 75.00 190.00
C 71.28 189.88 64.40 195.14 64.00 199.00 Z"/>
</g>
<g fill="#0E3E90" fill-opacity="1.00" stroke="None">
<path d="
M 69.00 210.00 
C 70.64 213.55 72.41 217.57 74.00 221.00
C 74.27 221.17 77.80 219.68 79.00 221.00
C 84.46 216.15 88.65 213.27 94.25 208.25 C 99.86 203.24 110.74 202.17 113.00 196.00
C 115.95 198.97 117.54 196.25 120.00 197.00
C 122.95 189.20 121.37 186.63 118.00 179.00
C 116.53 179.27 117.11 181.00 117.00 182.00
C 113.45 180.14 107.55 180.86 103.92 183.92 C 100.28 186.97 93.82 186.85 95.00 192.00
C 90.69 186.37 88.95 196.62 85.00 194.00
C 84.82 197.87 79.67 197.75 82.00 201.00
C 78.70 199.82 78.39 202.11 75.00 202.00
C 76.92 206.20 73.24 204.43 71.00 203.00
C 72.22 205.51 69.02 209.77 69.00 210.00 Z"/>
</g>
<g fill="#A9D4E9" fill-opacity="1.00" stroke="None">
<path d="
M 62.00 195.00 
C 61.32 193.36 60.68 191.54 60.00 190.00
C 58.75 187.17 56.39 183.84 55.00 181.00
C 55.92 186.31 59.64 190.67 62.00 195.00 Z"/>
</g>
<g fill="#0B286D" fill-opacity="1.00" stroke="None">
<path d="
M 74.00 221.00 
C 76.54 226.49 78.40 232.43 81.00 238.00
C 81.57 238.42 83.40 238.25 84.00 239.00
C 78.41 231.73 97.59 232.38 91.00 228.00
C 101.15 228.34 105.78 213.79 115.00 218.00
C 115.47 216.12 113.94 213.07 116.00 212.00
C 116.25 211.29 116.81 210.49 117.00 210.00
C 117.36 205.51 118.42 201.16 120.00 197.00
C 117.54 196.25 115.95 198.97 113.00 196.00
C 110.74 202.17 99.86 203.24 94.25 208.25 C 88.65 213.27 84.46 216.15 79.00 221.00
C 77.80 219.68 74.27 221.17 74.00 221.00 Z"/>
</g>
<g fill="#041442" fill-opacity="1.00" stroke="None">
<path d="
M 125.00 213.00 
C 124.56 221.11 125.17 231.95 131.00 238.00
C 131.78 238.81 132.37 239.00 133.00 240.00
C 135.71 242.73 140.23 244.53 138.00 249.00
C 134.61 248.82 130.72 247.11 129.00 244.00
C 126.91 242.73 125.40 240.88 124.00 239.00
C 119.64 233.14 117.39 226.26 117.00 219.00
C 116.69 217.06 115.61 214.63 116.00 212.00
C 113.94 213.07 115.47 216.12 115.00 218.00
C 105.78 213.79 101.15 228.34 91.00 228.00
C 97.59 232.38 78.41 231.73 84.00 239.00
C 83.40 238.25 81.57 238.42 81.00 238.00
C 85.44 247.50 88.63 257.44 95.00 266.00
C 96.56 267.79 99.26 270.48 101.00 272.00
C 116.77 283.72 141.74 284.59 155.25 269.25 C 168.75 253.90 171.93 237.65 180.00 220.00
C 178.25 220.15 178.27 222.44 177.00 223.00
C 177.17 219.17 177.47 216.60 179.00 214.00
C 175.03 214.69 171.67 212.25 167.22 211.78 C 162.77 211.30 159.23 214.12 159.00 209.00
C 155.78 209.40 156.49 212.70 152.00 212.00 C 147.51 211.30 144.62 211.44 142.00 214.00
C 141.04 209.89 136.23 211.29 134.00 209.00
C 135.78 212.57 129.05 215.67 127.00 213.00
C 126.53 215.52 128.03 219.23 126.00 221.00
C 127.01 218.41 125.08 214.86 125.00 213.00 Z"/>
</g>
<g fill="#516283" fill-opacity="1.00" stroke="None">
<path d="
M 116.00 212.00 
C 115.61 214.63 116.69 217.06 117.00 219.00
C 116.84 216.09 116.77 212.91 117.00 210.00
C 116.81 210.49 116.25 211.29 116.00 212.00 Z"/>
</g>
<g fill="#8893A4" fill-opacity="1.00" stroke="None">
<path d="
M 124.00 239.00 
C 125.40 240.88 126.91 242.73 129.00 244.00
C 129.56 244.34 130.53 244.63 131.00 245.00
C 133.26 245.42 134.43 244.32 134.00 242.00
C 133.49 241.45 133.37 240.59 133.00 240.00
C 132.37 239.00 131.78 238.81 131.00 238.00
C 128.32 237.84 127.83 242.25 124.00 239.00 Z"/>
</g>
<g fill="#0C1A44" fill-opacity="1.00" stroke="None">
<path d="
M 191.00 275.00 
C 190.80 277.75 189.20 279.90 188.00 282.00
C 182.64 291.42 191.08 291.81 195.00 284.00
C 199.17 291.97 190.29 300.19 182.33 297.67 C 174.37 295.15 175.24 281.20 184.00 281.00
C 187.45 279.37 187.95 278.56 190.00 275.00
C 182.50 272.19 174.88 276.73 171.78 283.78 C 168.68 290.83 171.70 298.55 178.77 302.23 C 185.84 305.91 194.57 303.71 199.23 297.23 C 203.89 290.74 202.47 283.18 208.07 277.07 C 213.68 270.96 194.73 264.92 197.26 261.26 C 199.79 257.60 212.90 266.95 213.22 271.78 C 213.54 276.61 204.31 285.57 207.08 292.92 C 209.84 300.28 216.63 305.50 224.93 303.93 C 233.22 302.35 238.03 295.06 236.99 287.01 C 235.96 278.95 229.62 274.54 222.00 274.00
C 223.25 281.17 237.45 288.53 227.23 296.23 C 217.00 303.93 209.31 289.20 215.00 282.00
C 216.07 283.41 225.89 292.51 223.31 282.69 C 220.73 272.88 218.12 265.80 210.00 260.00
C 208.23 258.73 205.85 257.06 205.00 255.00
C 204.07 253.47 203.77 251.83 204.00 250.00
C 219.66 247.25 198.84 230.33 200.00 247.00
C 192.33 248.41 193.69 253.71 188.77 258.77 C 183.85 263.83 191.56 270.50 191.00 275.00
M 199.00 274.00 
C 202.75 279.93 195.10 278.95 199.00 274.00 Z"/>
</g>
<g fill="#2F3E60" fill-opacity="1.00" stroke="None">
<path d="
M 134.00 242.00 
C 137.36 245.67 134.68 247.84 131.00 245.00
C 130.53 244.63 129.56 244.34 129.00 244.00
C 130.72 247.11 134.61 248.82 138.00 249.00
C 140.23 244.53 135.71 242.73 133.00 240.00
C 133.37 240.59 133.49 241.45 134.00 242.00 Z"/>
</g>
<g fill="#52627C" fill-opacity="1.00" stroke="None">
<path d="
M 131.00 245.00 
C 134.68 247.84 137.36 245.67 134.00 242.00
C 134.43 244.32 133.26 245.42 131.00 245.00 Z"/>
</g>
<g fill="#767B8A" fill-opacity="1.00" stroke="None">
<path d="
M 210.00 260.00 
C 209.12 259.27 205.49 255.96 205.00 255.00
C 205.85 257.06 208.23 258.73 210.00 260.00 Z"/>
</g>
<g fill="#6F7288" fill-opacity="1.00" stroke="None">
<path d="
M 101.00 272.00 
C 99.26 270.48 96.56 267.79 95.00 266.00
C 96.70 268.28 98.67 270.27 101.00 272.00 Z"/>
</g>
<g fill="#AAB6C6" fill-opacity="1.00" stroke="None">
<path d="
M 199.00 274.00 
C 195.10 278.95 202.75 279.93 199.00 274.00 Z"/>
</g>
<g fill="#8591AA" fill-opacity="1.00" stroke="None">
<path d="
M 184.00 281.00 
C 185.55 280.91 187.14 280.60 188.00 282.00
C 189.20 279.90 190.80 277.75 191.00 275.00
C 191.00 275.00 190.38 275.22 190.00 275.00
C 187.95 278.56 187.45 279.37 184.00 281.00 Z"/>
</g>
<g fill="#E2E5EA" fill-opacity="1.00" stroke="None">
<path d="
M 188.00 282.00 
C 187.14 280.60 185.55 280.91 184.00 281.00
C 175.24 281.20 174.37 295.15 182.33 297.67 C 190.29 300.19 199.17 291.97 195.00 284.00
C 191.08 291.81 182.64 291.42 188.00 282.00 Z"/>
</g>
</svg>