<svg xmlns="http://www.w3.org/2000/svg" xmlns:v="https://svgstorm.com"
viewBox = "0 0 335 299"
width="335"
height="299">
<g fill="None" fill-opacity="0.0" stroke="#F8F8F8" stroke-opacity="1.00" stroke-width="0.3"><path d="
M 0.00 299.00 
L 335.00 299.00
L 335.00 0.00
L 0.00 0.00
L 0.00 299.00
M 119.00 73.00 
C 119.11 73.47 119.00 74.00 119.00 74.00
C 121.38 76.77 122.81 81.43 124.00 85.00
C 125.38 89.13 126.75 93.13 129.00 97.00
C 132.60 103.20 135.84 109.99 138.00 117.00
C 140.02 123.56 143.07 129.73 146.00 136.00
C 147.25 138.67 147.88 141.36 149.00 144.00
C 150.17 146.75 151.73 150.06 153.00 153.00
C 154.91 157.43 156.96 161.63 159.00 166.00
C 160.48 169.16 162.43 172.56 163.00 176.00
C 163.64 179.89 159.98 185.78 159.00 190.00
C 158.40 192.58 158.18 195.30 158.00 198.00
C 157.82 200.64 158.00 203.35 158.00 206.00
C 158.00 206.95 157.86 208.06 158.00 209.00
C 159.17 216.86 162.90 223.20 168.00 229.00
C 167.94 228.22 171.48 224.96 172.00 225.00
C 166.17 218.95 165.56 208.12 166.00 200.00
C 167.17 178.50 182.48 155.07 191.00 136.00
C 195.48 125.98 199.66 114.93 204.00 105.00
C 206.57 99.12 209.57 92.69 212.00 87.00
C 214.38 81.42 216.56 75.66 219.00 70.00
C 220.94 65.50 222.34 60.09 225.00 56.00
C 237.11 37.42 267.26 34.53 278.00 56.00
C 283.05 66.10 280.23 74.85 276.00 84.00
C 273.00 90.48 269.93 97.67 267.00 104.00
C 264.02 110.44 260.84 117.65 258.00 124.00
C 252.89 135.43 248.12 147.41 243.00 159.00
C 235.89 175.10 228.18 191.29 221.00 207.00
C 210.93 229.03 208.66 252.65 183.92 264.92 C 159.19 277.20 135.05 256.51 126.00 234.00
C 123.54 227.88 120.59 222.06 118.00 216.00
C 116.11 211.57 113.95 207.42 112.00 203.00
C 110.96 200.65 110.01 198.37 109.00 196.00
C 107.60 192.73 106.54 189.12 105.00 186.00
C 103.58 183.13 102.31 180.08 101.00 177.00
C 100.78 176.49 100.28 175.75 100.00 175.00
C 98.37 172.62 96.56 171.21 96.00 168.00
C 95.92 167.51 95.95 166.49 96.00 166.00
C 95.42 164.24 93.80 161.92 93.00 160.00
C 89.21 153.42 85.03 142.14 80.00 139.00
C 80.97 130.12 73.54 122.14 70.69 113.31 C 67.85 104.47 61.90 95.93 59.00 87.00
C 58.96 86.50 59.00 86.00 59.00 86.00
C 52.37 80.92 52.90 65.55 56.00 59.00
C 62.58 45.09 75.39 38.92 91.00 41.00
C 105.19 42.89 116.04 60.39 119.00 73.00
M 231.00 262.00 
C 231.38 262.22 232.00 262.00 232.00 262.00
C 232.56 257.50 224.85 250.83 229.77 245.77 C 234.69 240.71 233.33 235.41 241.00 234.00
C 239.84 217.33 260.66 234.25 245.00 237.00
C 245.97 243.33 249.61 245.86 255.25 249.75 C 260.88 253.65 259.19 259.36 262.93 266.07 C 266.66 272.79 260.54 276.67 256.00 269.00
C 250.31 276.20 258.01 290.93 268.23 283.23 C 278.45 275.53 264.26 268.17 263.00 261.00
C 270.62 261.54 276.96 265.95 277.99 274.01 C 279.03 282.06 274.22 289.35 265.93 290.93 C 257.63 292.50 250.84 287.28 248.08 279.92 C 245.31 272.57 254.54 263.61 254.22 258.78 C 253.90 253.95 240.78 244.60 238.26 248.26 C 235.73 251.92 254.68 257.96 249.07 264.07 C 243.47 270.19 244.89 277.74 240.23 284.23 C 235.57 290.72 226.84 292.91 219.77 289.23 C 212.70 285.55 209.68 277.83 212.78 270.78 C 215.88 263.73 223.50 259.19 231.00 262.00 Z"/>
</g>
<g fill="None" fill-opacity="0.0" stroke="#0CC5FC" stroke-opacity="1.00" stroke-width="0.3"><path d="
M 56.00 59.00 
C 52.86 68.80 56.88 76.99 59.00 86.00
C 59.00 86.00 58.96 86.50 59.00 87.00
C 64.65 94.04 68.49 104.96 72.00 113.00
C 71.03 109.68 69.86 106.28 71.00 103.00
C 74.39 104.06 70.41 107.82 73.00 110.00
C 74.01 106.01 74.84 103.12 80.00 105.00
C 78.96 98.24 83.23 96.64 88.08 95.08 C 92.94 93.52 94.67 91.00 100.00 91.00
C 101.15 88.36 96.97 87.24 99.00 85.00
C 105.28 91.97 108.33 78.50 106.00 74.00
C 112.81 73.32 104.97 64.58 107.00 60.00
C 108.40 62.16 107.94 65.02 111.00 62.00
C 109.97 64.21 109.91 67.18 113.00 65.00
C 114.36 69.65 116.23 74.79 120.00 78.00
C 119.55 76.78 119.18 75.35 119.00 74.00
C 119.00 74.00 119.11 73.47 119.00 73.00
C 110.52 62.42 107.04 44.55 91.00 41.00
C 75.39 38.92 62.58 45.09 56.00 59.00 Z"/>
</g>
<g fill="None" fill-opacity="0.0" stroke="#B6EFF5" stroke-opacity="1.00" stroke-width="0.3"><path d="
M 119.00 73.00 
C 116.04 60.39 105.19 42.89 91.00 41.00
C 107.04 44.55 110.52 62.42 119.00 73.00 Z"/>
</g>
<g fill="None" fill-opacity="0.0" stroke="#E62E7D" stroke-opacity="1.00" stroke-width="0.3"><path d="
M 225.00 56.00 
C 232.41 60.16 242.59 61.29 250.03 61.97 C 257.47 62.65 270.61 62.05 278.00 61.00
C 278.27 59.40 275.57 57.01 278.00 56.00
C 267.26 34.53 237.11 37.42 225.00 56.00 Z"/>
</g>
<g fill="None" fill-opacity="0.0" stroke="#BC277D" stroke-opacity="1.00" stroke-width="0.3"><path d="
M 219.00 70.00 
C 218.64 71.41 218.20 75.35 218.00 78.00
C 222.75 70.44 230.27 77.59 239.03 78.97 C 247.79 80.35 258.66 77.49 267.00 82.00
C 267.49 79.74 272.02 80.69 270.00 78.00
C 272.40 79.00 274.75 81.39 276.00 84.00
C 280.23 74.85 283.05 66.10 278.00 56.00
C 275.57 57.01 278.27 59.40 278.00 61.00
C 270.61 62.05 257.47 62.65 250.03 61.97 C 242.59 61.29 232.41 60.16 225.00 56.00
C 222.34 60.09 220.94 65.50 219.00 70.00 Z"/>
</g>
<g fill="None" fill-opacity="0.0" stroke="#ACEFF6" stroke-opacity="1.00" stroke-width="0.3"><path d="
M 59.00 86.00 
C 56.88 76.99 52.86 68.80 56.00 59.00
C 52.90 65.55 52.37 80.92 59.00 86.00 Z"/>
</g>
<g fill="None" fill-opacity="0.0" stroke="#05B8FB" stroke-opacity="1.00" stroke-width="0.3"><path d="
M 72.00 113.00 
C 73.99 119.82 77.90 127.01 81.00 133.00
C 80.37 131.02 79.47 128.89 81.00 127.00
C 86.98 128.59 92.05 122.84 98.00 126.00
C 98.60 123.09 101.08 120.90 102.00 118.00
C 107.38 121.95 106.50 116.42 109.32 114.32 C 112.13 112.22 114.72 111.66 115.00 107.00
C 119.71 109.44 117.65 101.34 119.00 98.00
C 123.82 99.74 121.18 97.98 122.00 95.00
C 124.60 96.20 126.41 96.61 129.00 97.00
C 126.75 93.13 125.38 89.13 124.00 85.00
C 122.97 82.78 120.94 80.54 120.00 78.00
C 116.23 74.79 114.36 69.65 113.00 65.00
C 109.91 67.18 109.97 64.21 111.00 62.00
C 107.94 65.02 108.40 62.16 107.00 60.00
C 104.97 64.58 112.81 73.32 106.00 74.00
C 108.33 78.50 105.28 91.97 99.00 85.00
C 96.97 87.24 101.15 88.36 100.00 91.00
C 94.67 91.00 92.94 93.52 88.08 95.08 C 83.23 96.64 78.96 98.24 80.00 105.00
C 74.84 103.12 74.01 106.01 73.00 110.00
C 70.41 107.82 74.39 104.06 71.00 103.00
C 69.86 106.28 71.03 109.68 72.00 113.00 Z"/>
</g>
<g fill="None" fill-opacity="0.0" stroke="#91237B" stroke-opacity="1.00" stroke-width="0.3"><path d="
M 212.00 87.00 
C 212.03 90.51 212.24 94.59 217.00 98.00
C 218.28 95.25 220.36 96.33 221.00 99.00
C 230.10 93.69 239.29 103.19 247.00 99.00
C 250.70 103.78 259.92 102.55 265.00 106.00
C 264.48 105.03 266.42 102.04 267.00 104.00
C 269.93 97.67 273.00 90.48 276.00 84.00
C 274.75 81.39 272.40 79.00 270.00 78.00
C 272.02 80.69 267.49 79.74 267.00 82.00
C 258.66 77.49 247.79 80.35 239.03 78.97 C 230.27 77.59 222.75 70.44 218.00 78.00
C 218.20 75.35 218.64 71.41 219.00 70.00
C 216.56 75.66 214.38 81.42 212.00 87.00 Z"/>
</g>
<g fill="None" fill-opacity="0.0" stroke="#ABEDF5" stroke-opacity="1.00" stroke-width="0.3"><path d="
M 120.00 78.00 
C 120.94 80.54 122.97 82.78 124.00 85.00
C 122.81 81.43 121.38 76.77 119.00 74.00
C 119.18 75.35 119.55 76.78 120.00 78.00 Z"/>
</g>
<g fill="None" fill-opacity="0.0" stroke="#B4EBF5" stroke-opacity="1.00" stroke-width="0.3"><path d="
M 93.00 160.00 
C 91.91 157.38 91.16 154.50 90.00 152.00
C 87.16 145.87 84.16 139.12 81.00 133.00
C 77.90 127.01 73.99 119.82 72.00 113.00
C 68.49 104.96 64.65 94.04 59.00 87.00
C 61.90 95.93 67.85 104.47 70.69 113.31 C 73.54 122.14 80.97 130.12 80.00 139.00
C 85.03 142.14 89.21 153.42 93.00 160.00 Z"/>
</g>
<g fill="None" fill-opacity="0.0" stroke="#6C2379" stroke-opacity="1.00" stroke-width="0.3"><path d="
M 204.00 105.00 
C 203.61 106.67 202.80 111.02 205.00 113.00
C 207.50 111.02 209.92 109.30 211.00 114.00
C 219.34 112.32 233.03 121.33 244.00 122.00
C 243.39 119.29 247.83 121.66 247.00 118.00
C 250.86 120.70 257.56 120.84 254.00 127.00
C 256.11 127.07 256.82 122.23 258.00 124.00
C 260.84 117.65 264.02 110.44 267.00 104.00
C 266.42 102.04 264.48 105.03 265.00 106.00
C 259.92 102.55 250.70 103.78 247.00 99.00
C 239.29 103.19 230.10 93.69 221.00 99.00
C 220.36 96.33 218.28 95.25 217.00 98.00
C 212.24 94.59 212.03 90.51 212.00 87.00
C 209.57 92.69 206.57 99.12 204.00 105.00 Z"/>
</g>
<g fill="None" fill-opacity="0.0" stroke="#04A3F2" stroke-opacity="1.00" stroke-width="0.3"><path d="
M 81.00 133.00 
C 84.16 139.12 87.16 145.87 90.00 152.00
C 92.20 153.04 100.63 145.53 101.00 143.00
C 108.17 146.11 114.82 129.36 117.00 136.00
C 115.14 129.64 124.52 130.21 123.00 125.00
C 126.61 128.76 125.02 120.32 129.08 121.08 C 133.15 121.84 135.45 119.49 138.00 123.00
C 138.33 119.91 134.00 116.34 136.00 114.00
C 133.84 109.70 132.13 100.20 129.00 97.00
C 126.41 96.61 124.60 96.20 122.00 95.00
C 121.18 97.98 123.82 99.74 119.00 98.00
C 117.65 101.34 119.71 109.44 115.00 107.00
C 114.72 111.66 112.13 112.22 109.32 114.32 C 106.50 116.42 107.38 121.95 102.00 118.00
C 101.08 120.90 98.60 123.09 98.00 126.00
C 92.05 122.84 86.98 128.59 81.00 127.00
C 79.47 128.89 80.37 131.02 81.00 133.00 Z"/>
</g>
<g fill="None" fill-opacity="0.0" stroke="#AEE6F4" stroke-opacity="1.00" stroke-width="0.3"><path d="
M 136.00 114.00 
C 136.55 115.09 137.56 116.15 138.00 117.00
C 135.84 109.99 132.60 103.20 129.00 97.00
C 132.13 100.20 133.84 109.70 136.00 114.00 Z"/>
</g>
<g fill="None" fill-opacity="0.0" stroke="#452172" stroke-opacity="1.00" stroke-width="0.3"><path d="
M 191.00 136.00 
C 191.02 138.55 192.10 142.03 190.00 146.00
C 193.17 143.40 195.10 142.37 197.00 147.00
C 200.38 145.69 205.57 146.46 206.00 151.00
C 210.40 149.46 220.57 149.79 222.00 154.00
C 223.38 148.26 227.35 156.57 230.00 152.00
C 232.38 154.83 239.03 156.58 243.00 159.00
C 248.12 147.41 252.89 135.43 258.00 124.00
C 256.82 122.23 256.11 127.07 254.00 127.00
C 257.56 120.84 250.86 120.70 247.00 118.00
C 247.83 121.66 243.39 119.29 244.00 122.00
C 233.03 121.33 219.34 112.32 211.00 114.00
C 209.92 109.30 207.50 111.02 205.00 113.00
C 202.80 111.02 203.61 106.67 204.00 105.00
C 199.66 114.93 195.48 125.98 191.00 136.00 Z"/>
</g>
<g fill="None" fill-opacity="0.0" stroke="#0B8DE5" stroke-opacity="1.00" stroke-width="0.3"><path d="
M 90.00 152.00 
C 91.16 154.50 91.91 157.38 93.00 160.00
C 93.80 161.92 95.42 164.24 96.00 166.00
C 96.19 164.26 97.33 162.90 97.00 161.00
C 99.72 165.72 103.90 154.45 107.00 159.00
C 110.85 148.56 122.84 147.93 127.00 139.00
C 131.14 140.48 136.71 138.08 136.00 133.00
C 141.39 134.00 142.13 132.12 146.00 136.00
C 143.07 129.73 140.02 123.56 138.00 117.00
C 137.56 116.15 136.55 115.09 136.00 114.00
C 134.00 116.34 138.33 119.91 138.00 123.00
C 135.45 119.49 133.15 121.84 129.08 121.08 C 125.02 120.32 126.61 128.76 123.00 125.00
C 124.52 130.21 115.14 129.64 117.00 136.00
C 114.82 129.36 108.17 146.11 101.00 143.00
C 100.63 145.53 92.20 153.04 90.00 152.00 Z"/>
</g>
<g fill="None" fill-opacity="0.0" stroke="#0D7DD8" stroke-opacity="1.00" stroke-width="0.3"><path d="
M 96.00 166.00 
C 95.95 166.49 95.92 167.51 96.00 168.00
C 97.09 170.22 99.04 172.45 100.00 175.00
C 100.28 175.75 100.78 176.49 101.00 177.00
C 100.96 175.01 102.74 173.22 102.00 171.00
C 104.24 169.44 107.99 170.85 106.00 167.00
C 112.97 168.97 112.46 156.75 117.00 161.00
C 123.47 150.81 134.86 145.34 146.00 142.00
C 145.72 146.60 146.83 142.38 149.00 144.00
C 147.88 141.36 147.25 138.67 146.00 136.00
C 142.13 132.12 141.39 134.00 136.00 133.00
C 136.71 138.08 131.14 140.48 127.00 139.00
C 122.84 147.93 110.85 148.56 107.00 159.00
C 103.90 154.45 99.72 165.72 97.00 161.00
C 97.33 162.90 96.19 164.26 96.00 166.00 Z"/>
</g>
<g fill="None" fill-opacity="0.0" stroke="#191C5E" stroke-opacity="1.00" stroke-width="0.3"><path d="
M 166.00 200.00 
C 166.08 201.86 168.01 205.41 167.00 208.00
C 169.03 206.23 167.53 202.52 168.00 200.00
C 170.05 202.67 176.78 199.57 175.00 196.00
C 177.23 198.29 182.04 196.89 183.00 201.00
C 185.62 198.44 188.51 198.30 193.00 199.00 C 197.49 199.70 196.78 196.40 200.00 196.00
C 200.23 201.12 203.77 198.30 208.22 198.78 C 212.67 199.25 216.03 201.69 220.00 201.00
C 218.47 203.60 218.17 206.17 218.00 210.00
C 219.27 209.44 219.25 207.15 221.00 207.00
C 228.18 191.29 235.89 175.10 243.00 159.00
C 239.03 156.58 232.38 154.83 230.00 152.00
C 227.35 156.57 223.38 148.26 222.00 154.00
C 220.57 149.79 210.40 149.46 206.00 151.00
C 205.57 146.46 200.38 145.69 197.00 147.00
C 195.10 142.37 193.17 143.40 190.00 146.00
C 192.10 142.03 191.02 138.55 191.00 136.00
C 182.48 155.07 167.17 178.50 166.00 200.00 Z"/>
</g>
<g fill="None" fill-opacity="0.0" stroke="#0D6BC8" stroke-opacity="1.00" stroke-width="0.3"><path d="
M 101.00 177.00 
C 102.31 180.08 103.58 183.13 105.00 186.00
C 105.40 182.14 112.28 176.88 116.00 177.00
C 110.49 175.95 118.26 172.83 119.92 173.14 C 121.57 173.44 127.75 169.58 127.00 166.00
C 133.80 166.72 136.18 158.77 143.00 159.00
C 139.86 154.80 151.45 156.29 153.00 153.00
C 151.73 150.06 150.17 146.75 149.00 144.00
C 146.83 142.38 145.72 146.60 146.00 142.00
C 134.86 145.34 123.47 150.81 117.00 161.00
C 112.46 156.75 112.97 168.97 106.00 167.00
C 107.99 170.85 104.24 169.44 102.00 171.00
C 102.74 173.22 100.96 175.01 101.00 177.00 Z"/>
</g>
<g fill="None" fill-opacity="0.0" stroke="#0F54B0" stroke-opacity="1.00" stroke-width="0.3"><path d="
M 105.00 186.00 
C 106.54 189.12 107.60 192.73 109.00 196.00
C 109.65 196.43 111.34 196.25 112.00 197.00
C 112.77 194.39 110.62 192.15 112.00 190.00
C 114.24 191.43 117.92 193.20 116.00 189.00
C 119.39 189.11 119.70 186.82 123.00 188.00
C 120.67 184.75 125.82 184.87 126.00 181.00
C 129.95 183.62 131.69 173.38 136.00 179.00
C 134.82 173.85 141.28 173.97 144.92 170.92 C 148.55 167.86 154.45 167.14 158.00 169.00
C 158.11 168.00 157.53 166.27 159.00 166.00
C 156.96 161.63 154.91 157.43 153.00 153.00
C 151.45 156.29 139.86 154.80 143.00 159.00
C 136.18 158.77 133.80 166.72 127.00 166.00
C 127.75 169.58 121.57 173.44 119.92 173.14 C 118.26 172.83 110.49 175.95 116.00 177.00
C 112.28 176.88 105.40 182.14 105.00 186.00 Z"/>
</g>
<g fill="None" fill-opacity="0.0" stroke="#0F4297" stroke-opacity="1.00" stroke-width="0.3"><path d="
M 109.00 196.00 
C 110.01 198.37 110.96 200.65 112.00 203.00
C 114.12 201.39 114.26 204.81 117.00 203.00
C 117.48 198.33 127.57 197.39 128.00 191.00
C 132.65 194.25 138.36 186.50 143.25 183.25 C 148.15 180.00 153.24 176.93 160.00 175.00
C 159.93 177.81 161.84 178.08 163.00 176.00
C 162.43 172.56 160.48 169.16 159.00 166.00
C 157.53 166.27 158.11 168.00 158.00 169.00
C 154.45 167.14 148.55 167.86 144.92 170.92 C 141.28 173.97 134.82 173.85 136.00 179.00
C 131.69 173.38 129.95 183.62 126.00 181.00
C 125.82 184.87 120.67 184.75 123.00 188.00
C 119.70 186.82 119.39 189.11 116.00 189.00
C 117.92 193.20 114.24 191.43 112.00 190.00
C 110.62 192.15 112.77 194.39 112.00 197.00
C 111.34 196.25 109.65 196.43 109.00 196.00 Z"/>
</g>
<g fill="None" fill-opacity="0.0" stroke="#A3D3E8" stroke-opacity="1.00" stroke-width="0.3"><path d="
M 100.00 175.00 
C 99.04 172.45 97.09 170.22 96.00 168.00
C 96.56 171.21 98.37 172.62 100.00 175.00 Z"/>
</g>
<g fill="None" fill-opacity="0.0" stroke="#0D327D" stroke-opacity="1.00" stroke-width="0.3"><path d="
M 112.00 203.00 
C 113.95 207.42 116.11 211.57 118.00 216.00
C 118.71 216.61 121.06 216.65 122.00 217.00
C 121.39 211.96 130.19 209.74 133.23 206.23 C 136.27 202.72 143.86 196.94 147.00 199.00
C 147.98 194.95 155.09 188.47 157.00 193.00
C 157.22 191.72 158.61 185.92 159.00 190.00
C 159.98 185.78 163.64 179.89 163.00 176.00
C 161.84 178.08 159.93 177.81 160.00 175.00
C 153.24 176.93 148.15 180.00 143.25 183.25 C 138.36 186.50 132.65 194.25 128.00 191.00
C 127.57 197.39 117.48 198.33 117.00 203.00
C 114.26 204.81 114.12 201.39 112.00 203.00 Z"/>
</g>
<g fill="None" fill-opacity="0.0" stroke="#08205D" stroke-opacity="1.00" stroke-width="0.3"><path d="
M 118.00 216.00 
C 120.59 222.06 123.54 227.88 126.00 234.00
C 126.57 234.59 128.54 234.79 129.00 236.00
C 130.86 230.43 136.95 224.39 143.00 226.00
C 144.06 218.60 153.17 212.57 158.00 217.00
C 159.07 214.29 155.19 210.98 158.00 209.00
C 157.86 208.06 158.00 206.95 158.00 206.00
C 157.34 203.01 157.48 200.89 158.00 198.00
C 158.18 195.30 158.40 192.58 159.00 190.00
C 158.61 185.92 157.22 191.72 157.00 193.00
C 155.09 188.47 147.98 194.95 147.00 199.00
C 143.86 196.94 136.27 202.72 133.23 206.23 C 130.19 209.74 121.39 211.96 122.00 217.00
C 121.06 216.65 118.71 216.61 118.00 216.00 Z"/>
</g>
<g fill="None" fill-opacity="0.0" stroke="#041341" stroke-opacity="1.00" stroke-width="0.3"><path d="
M 166.00 200.00 
C 165.56 208.12 166.17 218.95 172.00 225.00
C 172.78 225.81 173.37 226.00 174.00 227.00
C 176.71 229.73 181.23 231.53 179.00 236.00
C 175.61 235.82 171.72 234.11 170.00 231.00
C 168.95 230.34 168.74 229.84 168.00 229.00
C 162.90 223.20 159.17 216.86 158.00 209.00
C 155.19 210.98 159.07 214.29 158.00 217.00
C 153.17 212.57 144.06 218.60 143.00 226.00
C 136.95 224.39 130.86 230.43 129.00 236.00
C 128.54 234.79 126.57 234.59 126.00 234.00
C 135.05 256.51 159.19 277.20 183.92 264.92 C 208.66 252.65 210.93 229.03 221.00 207.00
C 219.25 207.15 219.27 209.44 218.00 210.00
C 218.17 206.17 218.47 203.60 220.00 201.00
C 216.03 201.69 212.67 199.25 208.22 198.78 C 203.77 198.30 200.23 201.12 200.00 196.00
C 196.78 196.40 197.49 199.70 193.00 199.00 C 188.51 198.30 185.62 198.44 183.00 201.00
C 182.04 196.89 177.23 198.29 175.00 196.00
C 176.78 199.57 170.05 202.67 168.00 200.00
C 167.53 202.52 169.03 206.23 167.00 208.00
C 168.01 205.41 166.08 201.86 166.00 200.00 Z"/>
</g>
<g fill="None" fill-opacity="0.0" stroke="#566686" stroke-opacity="1.00" stroke-width="0.3"><path d="
M 158.00 206.00 
C 158.00 203.35 157.82 200.64 158.00 198.00
C 157.48 200.89 157.34 203.01 158.00 206.00 Z"/>
</g>
<g fill="None" fill-opacity="0.0" stroke="#8994A5" stroke-opacity="1.00" stroke-width="0.3"><path d="
M 168.00 229.00 
C 168.74 229.84 168.95 230.34 170.00 231.00
C 170.56 231.35 171.52 231.63 172.00 232.00
C 174.26 232.42 175.43 231.32 175.00 229.00
C 174.49 228.45 174.37 227.59 174.00 227.00
C 173.37 226.00 172.78 225.81 172.00 225.00
C 171.48 224.96 167.94 228.22 168.00 229.00 Z"/>
</g>
<g fill="None" fill-opacity="0.0" stroke="#0C1A44" stroke-opacity="1.00" stroke-width="0.3"><path d="
M 232.00 262.00 
C 231.80 264.75 230.20 266.90 229.00 269.00
C 223.64 278.42 232.08 278.81 236.00 271.00
C 240.17 278.97 231.29 287.19 223.33 284.67 C 215.37 282.15 216.24 268.20 225.00 268.00
C 228.45 266.37 228.95 265.56 231.00 262.00
C 223.50 259.19 215.88 263.73 212.78 270.78 C 209.68 277.83 212.70 285.55 219.77 289.23 C 226.84 292.91 235.57 290.72 240.23 284.23 C 244.89 277.74 243.47 270.19 249.07 264.07 C 254.68 257.96 235.73 251.92 238.26 248.26 C 240.78 244.60 253.90 253.95 254.22 258.78 C 254.54 263.61 245.31 272.57 248.08 279.92 C 250.84 287.28 257.63 292.50 265.93 290.93 C 274.22 289.35 279.03 282.06 277.99 274.01 C 276.96 265.95 270.62 261.54 263.00 261.00
C 264.26 268.17 278.45 275.53 268.23 283.23 C 258.01 290.93 250.31 276.20 256.00 269.00
C 260.54 276.67 266.66 272.79 262.93 266.07 C 259.19 259.36 260.88 253.65 255.25 249.75 C 249.61 245.86 245.97 243.33 245.00 237.00
C 260.66 234.25 239.84 217.33 241.00 234.00
C 233.33 235.41 234.69 240.71 229.77 245.77 C 224.85 250.83 232.56 257.50 232.00 262.00
M 240.00 261.00 
C 243.75 266.93 236.10 265.95 240.00 261.00 Z"/>
</g>
<g fill="None" fill-opacity="0.0" stroke="#2F3E60" stroke-opacity="1.00" stroke-width="0.3"><path d="
M 175.00 229.00 
C 178.36 232.67 175.68 234.85 172.00 232.00
C 171.52 231.63 170.56 231.35 170.00 231.00
C 171.72 234.11 175.61 235.82 179.00 236.00
C 181.23 231.53 176.71 229.73 174.00 227.00
C 174.37 227.59 174.49 228.45 175.00 229.00 Z"/>
</g>
<g fill="None" fill-opacity="0.0" stroke="#52627C" stroke-opacity="1.00" stroke-width="0.3"><path d="
M 172.00 232.00 
C 175.68 234.85 178.36 232.67 175.00 229.00
C 175.43 231.32 174.26 232.42 172.00 232.00 Z"/>
</g>
<g fill="None" fill-opacity="0.0" stroke="#AAB6C6" stroke-opacity="1.00" stroke-width="0.3"><path d="
M 240.00 261.00 
C 236.10 265.95 243.75 266.93 240.00 261.00 Z"/>
</g>
<g fill="None" fill-opacity="0.0" stroke="#8591AA" stroke-opacity="1.00" stroke-width="0.3"><path d="
M 225.00 268.00 
C 226.55 267.91 228.14 267.60 229.00 269.00
C 230.20 266.90 231.80 264.75 232.00 262.00
C 232.00 262.00 231.38 262.22 231.00 262.00
C 228.95 265.56 228.45 266.37 225.00 268.00 Z"/>
</g>
<g fill="None" fill-opacity="0.0" stroke="#E2E5EA" stroke-opacity="1.00" stroke-width="0.3"><path d="
M 229.00 269.00 
C 228.14 267.60 226.55 267.91 225.00 268.00
C 216.24 268.20 215.37 282.15 223.33 284.67 C 231.29 287.19 240.17 278.97 236.00 271.00
C 232.08 278.81 223.64 278.42 229.00 269.00 Z"/>
</g>
<g fill="#F8F8F8" fill-opacity="1.00" stroke="None">
<path d="
M 0.00 299.00 
L 335.00 299.00
L 335.00 0.00
L 0.00 0.00
L 0.00 299.00
M 119.00 73.00 
C 119.11 73.47 119.00 74.00 119.00 74.00
C 121.38 76.77 122.81 81.43 124.00 85.00
C 125.38 89.13 126.75 93.13 129.00 97.00
C 132.60 103.20 135.84 109.99 138.00 117.00
C 140.02 123.56 143.07 129.73 146.00 136.00
C 147.25 138.67 147.88 141.36 149.00 144.00
C 150.17 146.75 151.73 150.06 153.00 153.00
C 154.91 157.43 156.96 161.63 159.00 166.00
C 160.48 169.16 162.43 172.56 163.00 176.00
C 163.64 179.89 159.98 185.78 159.00 190.00
C 158.40 192.58 158.18 195.30 158.00 198.00
C 157.82 200.64 158.00 203.35 158.00 206.00
C 158.00 206.95 157.86 208.06 158.00 209.00
C 159.17 216.86 162.90 223.20 168.00 229.00
C 167.94 228.22 171.48 224.96 172.00 225.00
C 166.17 218.95 165.56 208.12 166.00 200.00
C 167.17 178.50 182.48 155.07 191.00 136.00
C 195.48 125.98 199.66 114.93 204.00 105.00
C 206.57 99.12 209.57 92.69 212.00 87.00
C 214.38 81.42 216.56 75.66 219.00 70.00
C 220.94 65.50 222.34 60.09 225.00 56.00
C 237.11 37.42 267.26 34.53 278.00 56.00
C 283.05 66.10 280.23 74.85 276.00 84.00
C 273.00 90.48 269.93 97.67 267.00 104.00
C 264.02 110.44 260.84 117.65 258.00 124.00
C 252.89 135.43 248.12 147.41 243.00 159.00
C 235.89 175.10 228.18 191.29 221.00 207.00
C 210.93 229.03 208.66 252.65 183.92 264.92 C 159.19 277.20 135.05 256.51 126.00 234.00
C 123.54 227.88 120.59 222.06 118.00 216.00
C 116.11 211.57 113.95 207.42 112.00 203.00
C 110.96 200.65 110.01 198.37 109.00 196.00
C 107.60 192.73 106.54 189.12 105.00 186.00
C 103.58 183.13 102.31 180.08 101.00 177.00
C 100.78 176.49 100.28 175.75 100.00 175.00
C 98.37 172.62 96.56 171.21 96.00 168.00
C 95.92 167.51 95.95 166.49 96.00 166.00
C 95.42 164.24 93.80 161.92 93.00 160.00
C 89.21 153.42 85.03 142.14 80.00 139.00
C 80.97 130.12 73.54 122.14 70.69 113.31 C 67.85 104.47 61.90 95.93 59.00 87.00
C 58.96 86.50 59.00 86.00 59.00 86.00
C 52.37 80.92 52.90 65.55 56.00 59.00
C 62.58 45.09 75.39 38.92 91.00 41.00
C 105.19 42.89 116.04 60.39 119.00 73.00
M 231.00 262.00 
C 231.38 262.22 232.00 262.00 232.00 262.00
C 232.56 257.50 224.85 250.83 229.77 245.77 C 234.69 240.71 233.33 235.41 241.00 234.00
C 239.84 217.33 260.66 234.25 245.00 237.00
C 245.97 243.33 249.61 245.86 255.25 249.75 C 260.88 253.65 259.19 259.36 262.93 266.07 C 266.66 272.79 260.54 276.67 256.00 269.00
C 250.31 276.20 258.01 290.93 268.23 283.23 C 278.45 275.53 264.26 268.17 263.00 261.00
C 270.62 261.54 276.96 265.95 277.99 274.01 C 279.03 282.06 274.22 289.35 265.93 290.93 C 257.63 292.50 250.84 287.28 248.08 279.92 C 245.31 272.57 254.54 263.61 254.22 258.78 C 253.90 253.95 240.78 244.60 238.26 248.26 C 235.73 251.92 254.68 257.96 249.07 264.07 C 243.47 270.19 244.89 277.74 240.23 284.23 C 235.57 290.72 226.84 292.91 219.77 289.23 C 212.70 285.55 209.68 277.83 212.78 270.78 C 215.88 263.73 223.50 259.19 231.00 262.00 Z"/>
</g>
<g fill="#0CC5FC" fill-opacity="1.00" stroke="None">
<path d="
M 56.00 59.00 
C 52.86 68.80 56.88 76.99 59.00 86.00
C 59.00 86.00 58.96 86.50 59.00 87.00
C 64.65 94.04 68.49 104.96 72.00 113.00
C 71.03 109.68 69.86 106.28 71.00 103.00
C 74.39 104.06 70.41 107.82 73.00 110.00
C 74.01 106.01 74.84 103.12 80.00 105.00
C 78.96 98.24 83.23 96.64 88.08 95.08 C 92.94 93.52 94.67 91.00 100.00 91.00
C 101.15 88.36 96.97 87.24 99.00 85.00
C 105.28 91.97 108.33 78.50 106.00 74.00
C 112.81 73.32 104.97 64.58 107.00 60.00
C 108.40 62.16 107.94 65.02 111.00 62.00
C 109.97 64.21 109.91 67.18 113.00 65.00
C 114.36 69.65 116.23 74.79 120.00 78.00
C 119.55 76.78 119.18 75.35 119.00 74.00
C 119.00 74.00 119.11 73.47 119.00 73.00
C 110.52 62.42 107.04 44.55 91.00 41.00
C 75.39 38.92 62.58 45.09 56.00 59.00 Z"/>
</g>
<g fill="#B6EFF5" fill-opacity="1.00" stroke="None">
<path d="
M 119.00 73.00 
C 116.04 60.39 105.19 42.89 91.00 41.00
C 107.04 44.55 110.52 62.42 119.00 73.00 Z"/>
</g>
<g fill="#E62E7D" fill-opacity="1.00" stroke="None">
<path d="
M 225.00 56.00 
C 232.41 60.16 242.59 61.29 250.03 61.97 C 257.47 62.65 270.61 62.05 278.00 61.00
C 278.27 59.40 275.57 57.01 278.00 56.00
C 267.26 34.53 237.11 37.42 225.00 56.00 Z"/>
</g>
<g fill="#BC277D" fill-opacity="1.00" stroke="None">
<path d="
M 219.00 70.00 
C 218.64 71.41 218.20 75.35 218.00 78.00
C 222.75 70.44 230.27 77.59 239.03 78.97 C 247.79 80.35 258.66 77.49 267.00 82.00
C 267.49 79.74 272.02 80.69 270.00 78.00
C 272.40 79.00 274.75 81.39 276.00 84.00
C 280.23 74.85 283.05 66.10 278.00 56.00
C 275.57 57.01 278.27 59.40 278.00 61.00
C 270.61 62.05 257.47 62.65 250.03 61.97 C 242.59 61.29 232.41 60.16 225.00 56.00
C 222.34 60.09 220.94 65.50 219.00 70.00 Z"/>
</g>
<g fill="#ACEFF6" fill-opacity="1.00" stroke="None">
<path d="
M 59.00 86.00 
C 56.88 76.99 52.86 68.80 56.00 59.00
C 52.90 65.55 52.37 80.92 59.00 86.00 Z"/>
</g>
<g fill="#05B8FB" fill-opacity="1.00" stroke="None">
<path d="
M 72.00 113.00 
C 73.99 119.82 77.90 127.01 81.00 133.00
C 80.37 131.02 79.47 128.89 81.00 127.00
C 86.98 128.59 92.05 122.84 98.00 126.00
C 98.60 123.09 101.08 120.90 102.00 118.00
C 107.38 121.95 106.50 116.42 109.32 114.32 C 112.13 112.22 114.72 111.66 115.00 107.00
C 119.71 109.44 117.65 101.34 119.00 98.00
C 123.82 99.74 121.18 97.98 122.00 95.00
C 124.60 96.20 126.41 96.61 129.00 97.00
C 126.75 93.13 125.38 89.13 124.00 85.00
C 122.97 82.78 120.94 80.54 120.00 78.00
C 116.23 74.79 114.36 69.65 113.00 65.00
C 109.91 67.18 109.97 64.21 111.00 62.00
C 107.94 65.02 108.40 62.16 107.00 60.00
C 104.97 64.58 112.81 73.32 106.00 74.00
C 108.33 78.50 105.28 91.97 99.00 85.00
C 96.97 87.24 101.15 88.36 100.00 91.00
C 94.67 91.00 92.94 93.52 88.08 95.08 C 83.23 96.64 78.96 98.24 80.00 105.00
C 74.84 103.12 74.01 106.01 73.00 110.00
C 70.41 107.82 74.39 104.06 71.00 103.00
C 69.86 106.28 71.03 109.68 72.00 113.00 Z"/>
</g>
<g fill="#91237B" fill-opacity="1.00" stroke="None">
<path d="
M 212.00 87.00 
C 212.03 90.51 212.24 94.59 217.00 98.00
C 218.28 95.25 220.36 96.33 221.00 99.00
C 230.10 93.69 239.29 103.19 247.00 99.00
C 250.70 103.78 259.92 102.55 265.00 106.00
C 264.48 105.03 266.42 102.04 267.00 104.00
C 269.93 97.67 273.00 90.48 276.00 84.00
C 274.75 81.39 272.40 79.00 270.00 78.00
C 272.02 80.69 267.49 79.74 267.00 82.00
C 258.66 77.49 247.79 80.35 239.03 78.97 C 230.27 77.59 222.75 70.44 218.00 78.00
C 218.20 75.35 218.64 71.41 219.00 70.00
C 216.56 75.66 214.38 81.42 212.00 87.00 Z"/>
</g>
<g fill="#ABEDF5" fill-opacity="1.00" stroke="None">
<path d="
M 120.00 78.00 
C 120.94 80.54 122.97 82.78 124.00 85.00
C 122.81 81.43 121.38 76.77 119.00 74.00
C 119.18 75.35 119.55 76.78 120.00 78.00 Z"/>
</g>
<g fill="#B4EBF5" fill-opacity="1.00" stroke="None">
<path d="
M 93.00 160.00 
C 91.91 157.38 91.16 154.50 90.00 152.00
C 87.16 145.87 84.16 139.12 81.00 133.00
C 77.90 127.01 73.99 119.82 72.00 113.00
C 68.49 104.96 64.65 94.04 59.00 87.00
C 61.90 95.93 67.85 104.47 70.69 113.31 C 73.54 122.14 80.97 130.12 80.00 139.00
C 85.03 142.14 89.21 153.42 93.00 160.00 Z"/>
</g>
<g fill="#6C2379" fill-opacity="1.00" stroke="None">
<path d="
M 204.00 105.00 
C 203.61 106.67 202.80 111.02 205.00 113.00
C 207.50 111.02 209.92 109.30 211.00 114.00
C 219.34 112.32 233.03 121.33 244.00 122.00
C 243.39 119.29 247.83 121.66 247.00 118.00
C 250.86 120.70 257.56 120.84 254.00 127.00
C 256.11 127.07 256.82 122.23 258.00 124.00
C 260.84 117.65 264.02 110.44 267.00 104.00
C 266.42 102.04 264.48 105.03 265.00 106.00
C 259.92 102.55 250.70 103.78 247.00 99.00
C 239.29 103.19 230.10 93.69 221.00 99.00
C 220.36 96.33 218.28 95.25 217.00 98.00
C 212.24 94.59 212.03 90.51 212.00 87.00
C 209.57 92.69 206.57 99.12 204.00 105.00 Z"/>
</g>
<g fill="#04A3F2" fill-opacity="1.00" stroke="None">
<path d="
M 81.00 133.00 
C 84.16 139.12 87.16 145.87 90.00 152.00
C 92.20 153.04 100.63 145.53 101.00 143.00
C 108.17 146.11 114.82 129.36 117.00 136.00
C 115.14 129.64 124.52 130.21 123.00 125.00
C 126.61 128.76 125.02 120.32 129.08 121.08 C 133.15 121.84 135.45 119.49 138.00 123.00
C 138.33 119.91 134.00 116.34 136.00 114.00
C 133.84 109.70 132.13 100.20 129.00 97.00
C 126.41 96.61 124.60 96.20 122.00 95.00
C 121.18 97.98 123.82 99.74 119.00 98.00
C 117.65 101.34 119.71 109.44 115.00 107.00
C 114.72 111.66 112.13 112.22 109.32 114.32 C 106.50 116.42 107.38 121.95 102.00 118.00
C 101.08 120.90 98.60 123.09 98.00 126.00
C 92.05 122.84 86.98 128.59 81.00 127.00
C 79.47 128.89 80.37 131.02 81.00 133.00 Z"/>
</g>
<g fill="#AEE6F4" fill-opacity="1.00" stroke="None">
<path d="
M 136.00 114.00 
C 136.55 115.09 137.56 116.15 138.00 117.00
C 135.84 109.99 132.60 103.20 129.00 97.00
C 132.13 100.20 133.84 109.70 136.00 114.00 Z"/>
</g>
<g fill="#452172" fill-opacity="1.00" stroke="None">
<path d="
M 191.00 136.00 
C 191.02 138.55 192.10 142.03 190.00 146.00
C 193.17 143.40 195.10 142.37 197.00 147.00
C 200.38 145.69 205.57 146.46 206.00 151.00
C 210.40 149.46 220.57 149.79 222.00 154.00
C 223.38 148.26 227.35 156.57 230.00 152.00
C 232.38 154.83 239.03 156.58 243.00 159.00
C 248.12 147.41 252.89 135.43 258.00 124.00
C 256.82 122.23 256.11 127.07 254.00 127.00
C 257.56 120.84 250.86 120.70 247.00 118.00
C 247.83 121.66 243.39 119.29 244.00 122.00
C 233.03 121.33 219.34 112.32 211.00 114.00
C 209.92 109.30 207.50 111.02 205.00 113.00
C 202.80 111.02 203.61 106.67 204.00 105.00
C 199.66 114.93 195.48 125.98 191.00 136.00 Z"/>
</g>
<g fill="#0B8DE5" fill-opacity="1.00" stroke="None">
<path d="
M 90.00 152.00 
C 91.16 154.50 91.91 157.38 93.00 160.00
C 93.80 161.92 95.42 164.24 96.00 166.00
C 96.19 164.26 97.33 162.90 97.00 161.00
C 99.72 165.72 103.90 154.45 107.00 159.00
C 110.85 148.56 122.84 147.93 127.00 139.00
C 131.14 140.48 136.71 138.08 136.00 133.00
C 141.39 134.00 142.13 132.12 146.00 136.00
C 143.07 129.73 140.02 123.56 138.00 117.00
C 137.56 116.15 136.55 115.09 136.00 114.00
C 134.00 116.34 138.33 119.91 138.00 123.00
C 135.45 119.49 133.15 121.84 129.08 121.08 C 125.02 120.32 126.61 128.76 123.00 125.00
C 124.52 130.21 115.14 129.64 117.00 136.00
C 114.82 129.36 108.17 146.11 101.00 143.00
C 100.63 145.53 92.20 153.04 90.00 152.00 Z"/>
</g>
<g fill="#0D7DD8" fill-opacity="1.00" stroke="None">
<path d="
M 96.00 166.00 
C 95.95 166.49 95.92 167.51 96.00 168.00
C 97.09 170.22 99.04 172.45 100.00 175.00
C 100.28 175.75 100.78 176.49 101.00 177.00
C 100.96 175.01 102.74 173.22 102.00 171.00
C 104.24 169.44 107.99 170.85 106.00 167.00
C 112.97 168.97 112.46 156.75 117.00 161.00
C 123.47 150.81 134.86 145.34 146.00 142.00
C 145.72 146.60 146.83 142.38 149.00 144.00
C 147.88 141.36 147.25 138.67 146.00 136.00
C 142.13 132.12 141.39 134.00 136.00 133.00
C 136.71 138.08 131.14 140.48 127.00 139.00
C 122.84 147.93 110.85 148.56 107.00 159.00
C 103.90 154.45 99.72 165.72 97.00 161.00
C 97.33 162.90 96.19 164.26 96.00 166.00 Z"/>
</g>
<g fill="#191C5E" fill-opacity="1.00" stroke="None">
<path d="
M 166.00 200.00 
C 166.08 201.86 168.01 205.41 167.00 208.00
C 169.03 206.23 167.53 202.52 168.00 200.00
C 170.05 202.67 176.78 199.57 175.00 196.00
C 177.23 198.29 182.04 196.89 183.00 201.00
C 185.62 198.44 188.51 198.30 193.00 199.00 C 197.49 199.70 196.78 196.40 200.00 196.00
C 200.23 201.12 203.77 198.30 208.22 198.78 C 212.67 199.25 216.03 201.69 220.00 201.00
C 218.47 203.60 218.17 206.17 218.00 210.00
C 219.27 209.44 219.25 207.15 221.00 207.00
C 228.18 191.29 235.89 175.10 243.00 159.00
C 239.03 156.58 232.38 154.83 230.00 152.00
C 227.35 156.57 223.38 148.26 222.00 154.00
C 220.57 149.79 210.40 149.46 206.00 151.00
C 205.57 146.46 200.38 145.69 197.00 147.00
C 195.10 142.37 193.17 143.40 190.00 146.00
C 192.10 142.03 191.02 138.55 191.00 136.00
C 182.48 155.07 167.17 178.50 166.00 200.00 Z"/>
</g>
<g fill="#0D6BC8" fill-opacity="1.00" stroke="None">
<path d="
M 101.00 177.00 
C 102.31 180.08 103.58 183.13 105.00 186.00
C 105.40 182.14 112.28 176.88 116.00 177.00
C 110.49 175.95 118.26 172.83 119.92 173.14 C 121.57 173.44 127.75 169.58 127.00 166.00
C 133.80 166.72 136.18 158.77 143.00 159.00
C 139.86 154.80 151.45 156.29 153.00 153.00
C 151.73 150.06 150.17 146.75 149.00 144.00
C 146.83 142.38 145.72 146.60 146.00 142.00
C 134.86 145.34 123.47 150.81 117.00 161.00
C 112.46 156.75 112.97 168.97 106.00 167.00
C 107.99 170.85 104.24 169.44 102.00 171.00
C 102.74 173.22 100.96 175.01 101.00 177.00 Z"/>
</g>
<g fill="#0F54B0" fill-opacity="1.00" stroke="None">
<path d="
M 105.00 186.00 
C 106.54 189.12 107.60 192.73 109.00 196.00
C 109.65 196.43 111.34 196.25 112.00 197.00
C 112.77 194.39 110.62 192.15 112.00 190.00
C 114.24 191.43 117.92 193.20 116.00 189.00
C 119.39 189.11 119.70 186.82 123.00 188.00
C 120.67 184.75 125.82 184.87 126.00 181.00
C 129.95 183.62 131.69 173.38 136.00 179.00
C 134.82 173.85 141.28 173.97 144.92 170.92 C 148.55 167.86 154.45 167.14 158.00 169.00
C 158.11 168.00 157.53 166.27 159.00 166.00
C 156.96 161.63 154.91 157.43 153.00 153.00
C 151.45 156.29 139.86 154.80 143.00 159.00
C 136.18 158.77 133.80 166.72 127.00 166.00
C 127.75 169.58 121.57 173.44 119.92 173.14 C 118.26 172.83 110.49 175.95 116.00 177.00
C 112.28 176.88 105.40 182.14 105.00 186.00 Z"/>
</g>
<g fill="#0F4297" fill-opacity="1.00" stroke="None">
<path d="
M 109.00 196.00 
C 110.01 198.37 110.96 200.65 112.00 203.00
C 114.12 201.39 114.26 204.81 117.00 203.00
C 117.48 198.33 127.57 197.39 128.00 191.00
C 132.65 194.25 138.36 186.50 143.25 183.25 C 148.15 180.00 153.24 176.93 160.00 175.00
C 159.93 177.81 161.84 178.08 163.00 176.00
C 162.43 172.56 160.48 169.16 159.00 166.00
C 157.53 166.27 158.11 168.00 158.00 169.00
C 154.45 167.14 148.55 167.86 144.92 170.92 C 141.28 173.97 134.82 173.85 136.00 179.00
C 131.69 173.38 129.95 183.62 126.00 181.00
C 125.82 184.87 120.67 184.75 123.00 188.00
C 119.70 186.82 119.39 189.11 116.00 189.00
C 117.92 193.20 114.24 191.43 112.00 190.00
C 110.62 192.15 112.77 194.39 112.00 197.00
C 111.34 196.25 109.65 196.43 109.00 196.00 Z"/>
</g>
<g fill="#A3D3E8" fill-opacity="1.00" stroke="None">
<path d="
M 100.00 175.00 
C 99.04 172.45 97.09 170.22 96.00 168.00
C 96.56 171.21 98.37 172.62 100.00 175.00 Z"/>
</g>
<g fill="#0D327D" fill-opacity="1.00" stroke="None">
<path d="
M 112.00 203.00 
C 113.95 207.42 116.11 211.57 118.00 216.00
C 118.71 216.61 121.06 216.65 122.00 217.00
C 121.39 211.96 130.19 209.74 133.23 206.23 C 136.27 202.72 143.86 196.94 147.00 199.00
C 147.98 194.95 155.09 188.47 157.00 193.00
C 157.22 191.72 158.61 185.92 159.00 190.00
C 159.98 185.78 163.64 179.89 163.00 176.00
C 161.84 178.08 159.93 177.81 160.00 175.00
C 153.24 176.93 148.15 180.00 143.25 183.25 C 138.36 186.50 132.65 194.25 128.00 191.00
C 127.57 197.39 117.48 198.33 117.00 203.00
C 114.26 204.81 114.12 201.39 112.00 203.00 Z"/>
</g>
<g fill="#08205D" fill-opacity="1.00" stroke="None">
<path d="
M 118.00 216.00 
C 120.59 222.06 123.54 227.88 126.00 234.00
C 126.57 234.59 128.54 234.79 129.00 236.00
C 130.86 230.43 136.95 224.39 143.00 226.00
C 144.06 218.60 153.17 212.57 158.00 217.00
C 159.07 214.29 155.19 210.98 158.00 209.00
C 157.86 208.06 158.00 206.95 158.00 206.00
C 157.34 203.01 157.48 200.89 158.00 198.00
C 158.18 195.30 158.40 192.58 159.00 190.00
C 158.61 185.92 157.22 191.72 157.00 193.00
C 155.09 188.47 147.98 194.95 147.00 199.00
C 143.86 196.94 136.27 202.72 133.23 206.23 C 130.19 209.74 121.39 211.96 122.00 217.00
C 121.06 216.65 118.71 216.61 118.00 216.00 Z"/>
</g>
<g fill="#041341" fill-opacity="1.00" stroke="None">
<path d="
M 166.00 200.00 
C 165.56 208.12 166.17 218.95 172.00 225.00
C 172.78 225.81 173.37 226.00 174.00 227.00
C 176.71 229.73 181.23 231.53 179.00 236.00
C 175.61 235.82 171.72 234.11 170.00 231.00
C 168.95 230.34 168.74 229.84 168.00 229.00
C 162.90 223.20 159.17 216.86 158.00 209.00
C 155.19 210.98 159.07 214.29 158.00 217.00
C 153.17 212.57 144.06 218.60 143.00 226.00
C 136.95 224.39 130.86 230.43 129.00 236.00
C 128.54 234.79 126.57 234.59 126.00 234.00
C 135.05 256.51 159.19 277.20 183.92 264.92 C 208.66 252.65 210.93 229.03 221.00 207.00
C 219.25 207.15 219.27 209.44 218.00 210.00
C 218.17 206.17 218.47 203.60 220.00 201.00
C 216.03 201.69 212.67 199.25 208.22 198.78 C 203.77 198.30 200.23 201.12 200.00 196.00
C 196.78 196.40 197.49 199.70 193.00 199.00 C 188.51 198.30 185.62 198.44 183.00 201.00
C 182.04 196.89 177.23 198.29 175.00 196.00
C 176.78 199.57 170.05 202.67 168.00 200.00
C 167.53 202.52 169.03 206.23 167.00 208.00
C 168.01 205.41 166.08 201.86 166.00 200.00 Z"/>
</g>
<g fill="#566686" fill-opacity="1.00" stroke="None">
<path d="
M 158.00 206.00 
C 158.00 203.35 157.82 200.64 158.00 198.00
C 157.48 200.89 157.34 203.01 158.00 206.00 Z"/>
</g>
<g fill="#8994A5" fill-opacity="1.00" stroke="None">
<path d="
M 168.00 229.00 
C 168.74 229.84 168.95 230.34 170.00 231.00
C 170.56 231.35 171.52 231.63 172.00 232.00
C 174.26 232.42 175.43 231.32 175.00 229.00
C 174.49 228.45 174.37 227.59 174.00 227.00
C 173.37 226.00 172.78 225.81 172.00 225.00
C 171.48 224.96 167.94 228.22 168.00 229.00 Z"/>
</g>
<g fill="#0C1A44" fill-opacity="1.00" stroke="None">
<path d="
M 232.00 262.00 
C 231.80 264.75 230.20 266.90 229.00 269.00
C 223.64 278.42 232.08 278.81 236.00 271.00
C 240.17 278.97 231.29 287.19 223.33 284.67 C 215.37 282.15 216.24 268.20 225.00 268.00
C 228.45 266.37 228.95 265.56 231.00 262.00
C 223.50 259.19 215.88 263.73 212.78 270.78 C 209.68 277.83 212.70 285.55 219.77 289.23 C 226.84 292.91 235.57 290.72 240.23 284.23 C 244.89 277.74 243.47 270.19 249.07 264.07 C 254.68 257.96 235.73 251.92 238.26 248.26 C 240.78 244.60 253.90 253.95 254.22 258.78 C 254.54 263.61 245.31 272.57 248.08 279.92 C 250.84 287.28 257.63 292.50 265.93 290.93 C 274.22 289.35 279.03 282.06 277.99 274.01 C 276.96 265.95 270.62 261.54 263.00 261.00
C 264.26 268.17 278.45 275.53 268.23 283.23 C 258.01 290.93 250.31 276.20 256.00 269.00
C 260.54 276.67 266.66 272.79 262.93 266.07 C 259.19 259.36 260.88 253.65 255.25 249.75 C 249.61 245.86 245.97 243.33 245.00 237.00
C 260.66 234.25 239.84 217.33 241.00 234.00
C 233.33 235.41 234.69 240.71 229.77 245.77 C 224.85 250.83 232.56 257.50 232.00 262.00
M 240.00 261.00 
C 243.75 266.93 236.10 265.95 240.00 261.00 Z"/>
</g>
<g fill="#2F3E60" fill-opacity="1.00" stroke="None">
<path d="
M 175.00 229.00 
C 178.36 232.67 175.68 234.85 172.00 232.00
C 171.52 231.63 170.56 231.35 170.00 231.00
C 171.72 234.11 175.61 235.82 179.00 236.00
C 181.23 231.53 176.71 229.73 174.00 227.00
C 174.37 227.59 174.49 228.45 175.00 229.00 Z"/>
</g>
<g fill="#52627C" fill-opacity="1.00" stroke="None">
<path d="
M 172.00 232.00 
C 175.68 234.85 178.36 232.67 175.00 229.00
C 175.43 231.32 174.26 232.42 172.00 232.00 Z"/>
</g>
<g fill="#AAB6C6" fill-opacity="1.00" stroke="None">
<path d="
M 240.00 261.00 
C 236.10 265.95 243.75 266.93 240.00 261.00 Z"/>
</g>
<g fill="#8591AA" fill-opacity="1.00" stroke="None">
<path d="
M 225.00 268.00 
C 226.55 267.91 228.14 267.60 229.00 269.00
C 230.20 266.90 231.80 264.75 232.00 262.00
C 232.00 262.00 231.38 262.22 231.00 262.00
C 228.95 265.56 228.45 266.37 225.00 268.00 Z"/>
</g>
<g fill="#E2E5EA" fill-opacity="1.00" stroke="None">
<path d="
M 229.00 269.00 
C 228.14 267.60 226.55 267.91 225.00 268.00
C 216.24 268.20 215.37 282.15 223.33 284.67 C 231.29 287.19 240.17 278.97 236.00 271.00
C 232.08 278.81 223.64 278.42 229.00 269.00 Z"/>
</g>
</svg>