<svg xmlns="http://www.w3.org/2000/svg" xmlns:v="https://svgstorm.com"
viewBox = "0 0 500 500"
width="500"
height="500">
<g fill="None" fill-opacity="0.0" stroke="#F5F5F5" stroke-opacity="1.00" stroke-width="0.3"><path d="
M 0.00 500.00 
L 500.00 500.00
L 500.00 0.00
L 0.00 0.00
L 0.00 500.00
M 208.00 124.00 
C 208.11 124.47 208.00 125.00 208.00 125.00
C 210.38 127.77 211.81 132.43 213.00 136.00
C 214.38 140.14 215.75 144.13 218.00 148.00
C 221.60 154.20 224.84 160.99 227.00 168.00
C 229.00 174.49 231.87 180.89 235.00 187.00
C 237.03 190.97 238.48 194.89 240.00 199.00
C 241.75 203.74 244.01 208.40 246.00 213.00
C 247.98 217.60 251.18 222.04 252.00 227.00
C 252.86 232.21 247.52 241.39 247.00 248.00
C 246.75 251.21 246.78 254.79 247.00 258.00
C 247.46 264.79 249.91 271.50 254.00 277.00
C 257.83 280.25 258.32 275.84 261.00 276.00
C 251.06 265.68 255.02 247.63 259.00 236.00
C 264.73 219.26 272.88 202.93 280.00 187.00
C 284.50 176.93 288.56 166.29 293.00 156.00
C 295.55 150.10 298.57 143.70 301.00 138.00
C 302.08 135.47 302.94 132.64 304.00 130.00
C 306.04 124.92 309.04 119.77 311.00 115.00
C 312.27 111.91 312.92 108.91 315.00 106.00
C 327.56 88.42 356.39 85.79 367.00 107.00
C 367.97 108.95 368.50 110.90 369.00 113.00
C 371.95 125.46 364.86 135.49 360.00 146.00
C 358.68 148.85 357.25 152.30 356.00 155.00
C 353.02 161.44 349.84 168.65 347.00 175.00
C 341.89 186.43 337.12 198.41 332.00 210.00
C 329.33 216.04 326.59 221.99 324.00 228.00
C 315.67 247.31 306.80 263.37 299.22 283.22 C 291.65 303.08 278.22 320.26 254.00 319.00 C 229.78 317.74 221.72 297.87 213.00 279.00
C 209.22 270.82 204.74 262.48 201.00 254.00
C 199.37 250.31 197.64 246.72 196.00 243.00
C 194.42 239.43 193.61 235.37 192.00 232.00
C 191.11 230.15 189.88 228.04 189.00 226.00
C 187.66 223.55 185.56 222.22 185.00 219.00
C 184.92 218.51 184.95 217.49 185.00 217.00
C 184.42 215.24 182.80 212.92 182.00 211.00
C 178.09 204.74 175.60 199.14 173.00 192.00
C 172.13 189.60 170.97 187.35 170.00 185.00
C 165.79 183.51 164.54 173.92 162.08 169.92 C 159.61 165.92 156.96 158.47 155.08 153.92 C 153.20 149.37 148.37 142.99 148.00 138.00
C 147.96 137.50 148.00 137.00 148.00 137.00
C 141.37 131.92 141.90 116.55 145.00 110.00
C 151.58 96.09 164.39 89.92 180.00 92.00
C 194.19 93.89 205.04 111.39 208.00 124.00
M 320.00 313.00 
C 320.38 313.22 321.00 313.00 321.00 313.00
C 321.56 308.50 313.85 301.83 318.77 296.77 C 323.69 291.71 322.33 286.41 330.00 285.00
C 328.84 268.33 349.66 285.25 334.00 288.00
C 334.27 295.10 338.39 297.01 344.25 300.75 C 350.10 304.50 348.08 310.43 351.93 317.07 C 355.77 323.71 349.46 327.73 345.00 320.00
C 339.05 327.46 347.34 341.60 357.23 334.23 C 367.11 326.86 354.46 319.34 352.00 313.00
C 362.26 311.26 368.02 321.12 367.00 330.00 C 365.98 338.88 355.13 343.95 347.33 341.67 C 339.53 339.39 333.07 328.65 337.93 320.93 C 342.78 313.20 347.24 308.75 336.30 302.70 C 325.37 296.64 326.93 301.58 335.70 307.31 C 344.46 313.03 332.57 321.50 332.02 329.02 C 331.48 336.55 320.90 343.91 313.00 342.00 C 305.10 340.09 298.64 332.11 300.98 323.98 C 303.31 315.84 311.57 309.87 320.00 313.00
M 262.00 370.00 
C 261.21 363.19 243.79 366.00 248.26 370.75 C 252.73 375.49 261.92 372.85 267.07 376.93 C 272.23 381.00 276.16 387.18 273.02 394.02 C 269.89 400.87 265.42 402.56 258.00 404.00 C 250.57 405.44 245.59 403.87 237.77 401.23 C 229.95 398.58 233.79 390.29 239.25 389.25 C 244.70 388.20 253.08 400.14 258.22 393.22 C 263.36 386.31 247.05 386.81 243.32 384.68 C 239.60 382.55 230.88 376.36 233.00 370.00 C 235.13 363.63 238.18 359.37 245.08 357.08 C 251.98 354.78 258.91 356.05 266.08 358.92 C 273.25 361.79 269.41 369.54 262.00 370.00
M 307.00 357.00 
C 311.50 361.50 306.42 373.51 308.00 380.00 C 309.58 386.49 306.81 397.13 308.00 404.00
C 303.50 403.36 297.67 405.30 294.00 403.00
C 289.69 398.69 294.83 389.09 293.00 383.00 C 291.17 376.91 295.03 368.65 293.00 362.00 C 290.97 355.35 303.37 353.37 307.00 357.00
M 369.00 358.00 
C 370.35 359.87 370.78 364.22 369.00 366.00
C 366.19 368.81 359.72 365.96 356.00 367.00
C 356.00 379.33 356.00 391.67 356.00 404.00
C 345.84 406.38 339.19 403.12 341.00 393.00 C 342.81 382.88 339.64 376.76 341.00 367.00
C 336.67 367.00 332.33 367.00 328.00 367.00
C 323.82 354.88 335.60 354.91 344.00 356.00 C 352.40 357.09 362.28 353.57 369.00 358.00
M 157.00 385.00 
C 163.40 375.00 159.26 351.73 178.00 357.00
C 175.91 367.35 171.60 375.63 169.02 386.02 C 166.45 396.42 162.20 408.90 148.00 404.00
C 143.46 388.21 137.04 372.95 133.00 357.00
C 141.43 355.47 149.99 356.60 150.78 365.22 C 151.57 373.85 155.44 377.03 157.00 385.00
M 212.00 357.00 
C 212.00 372.67 212.00 388.33 212.00 404.00
C 207.33 404.00 202.67 404.00 198.00 404.00
C 198.00 388.33 198.00 372.67 198.00 357.00
C 202.67 357.00 207.33 357.00 212.00 357.00
M 192.00 431.00 
C 223.87 437.60 210.60 494.79 177.93 484.07 C 145.26 473.36 158.38 424.04 192.00 431.00
M 246.00 431.00 
C 250.85 433.50 247.61 449.06 248.00 454.00 C 248.39 458.93 246.56 474.84 256.00 471.00 C 265.44 467.16 257.70 456.64 260.00 449.00 C 262.30 441.36 255.43 431.80 267.00 431.00 C 278.57 430.20 275.98 439.54 276.00 448.00 C 276.02 456.46 276.41 464.20 274.67 471.67 C 272.93 479.14 267.83 482.08 260.98 483.98 C 254.12 485.87 246.51 485.51 239.77 482.23 C 233.04 478.95 230.98 473.90 230.00 466.00 C 229.03 458.10 232.14 449.54 230.00 441.00 C 227.86 432.46 237.41 426.56 246.00 431.00
M 327.00 445.00 
C 328.07 455.60 325.57 466.42 327.00 477.00 C 328.43 487.58 307.58 487.60 309.00 477.00 C 310.42 466.40 307.93 455.62 309.00 445.00
C 302.06 444.48 295.25 447.74 295.00 439.00 C 294.75 430.26 299.55 430.67 307.00 431.00 C 314.45 431.33 320.54 430.73 328.00 431.00 C 335.46 431.27 340.79 428.84 341.00 438.00 C 341.21 447.16 334.62 444.99 327.00 445.00 Z"/>
</g>
<g fill="None" fill-opacity="0.0" stroke="#0CC5FC" stroke-opacity="1.00" stroke-width="0.3"><path d="
M 145.00 110.00 
C 141.86 119.80 145.88 127.99 148.00 137.00
C 148.00 137.00 147.96 137.50 148.00 138.00
C 153.65 145.04 157.49 155.96 161.00 164.00
C 160.03 160.68 158.86 157.28 160.00 154.00
C 163.39 155.06 159.41 158.82 162.00 161.00
C 163.01 157.01 163.84 154.12 169.00 156.00
C 167.96 149.24 172.23 147.64 177.08 146.08 C 181.94 144.52 183.67 142.00 189.00 142.00
C 190.15 139.36 185.97 138.24 188.00 136.00
C 194.28 142.97 197.33 129.50 195.00 125.00
C 201.81 124.32 193.97 115.58 196.00 111.00
C 197.40 113.16 196.94 116.02 200.00 113.00
C 198.97 115.21 198.91 118.18 202.00 116.00
C 203.36 120.65 205.23 125.79 209.00 129.00
C 208.55 127.78 208.18 126.35 208.00 125.00
C 208.00 125.00 208.11 124.47 208.00 124.00
C 199.52 113.42 196.04 95.55 180.00 92.00
C 164.39 89.92 151.58 96.09 145.00 110.00 Z"/>
</g>
<g fill="None" fill-opacity="0.0" stroke="#B6EFF5" stroke-opacity="1.00" stroke-width="0.3"><path d="
M 208.00 124.00 
C 205.04 111.39 194.19 93.89 180.00 92.00
C 196.04 95.55 199.52 113.42 208.00 124.00 Z"/>
</g>
<g fill="None" fill-opacity="0.0" stroke="#E62E7D" stroke-opacity="1.00" stroke-width="0.3"><path d="
M 315.00 106.00 
C 314.97 106.68 316.95 108.87 317.00 110.00
C 334.54 111.76 349.41 114.62 367.00 112.00
C 367.27 110.40 364.57 108.01 367.00 107.00
C 356.39 85.79 327.56 88.42 315.00 106.00 Z"/>
</g>
<g fill="None" fill-opacity="0.0" stroke="#C7267C" stroke-opacity="1.00" stroke-width="0.3"><path d="
M 311.00 115.00 
C 312.47 119.17 320.57 116.85 324.01 119.99 C 327.45 123.13 334.27 120.32 337.30 120.29 C 340.33 120.26 347.87 123.83 352.07 122.93 C 356.28 122.02 363.68 121.78 368.00 122.00
C 368.59 119.16 366.78 115.02 369.00 113.00
C 368.50 110.90 367.97 108.95 367.00 107.00
C 364.57 108.01 367.27 110.40 367.00 112.00
C 349.41 114.62 334.54 111.76 317.00 110.00
C 316.95 108.87 314.97 106.68 315.00 106.00
C 312.92 108.91 312.27 111.91 311.00 115.00 Z"/>
</g>
<g fill="None" fill-opacity="0.0" stroke="#ACEFF6" stroke-opacity="1.00" stroke-width="0.3"><path d="
M 148.00 137.00 
C 145.88 127.99 141.86 119.80 145.00 110.00
C 141.90 116.55 141.37 131.92 148.00 137.00 Z"/>
</g>
<g fill="None" fill-opacity="0.0" stroke="#05B8FB" stroke-opacity="1.00" stroke-width="0.3"><path d="
M 161.00 164.00 
C 162.37 168.72 166.36 181.22 170.00 184.00
C 169.17 182.14 168.62 179.80 170.00 178.00
C 175.98 179.59 181.05 173.85 187.00 177.00
C 187.60 174.09 190.08 171.90 191.00 169.00
C 196.38 172.95 195.50 167.42 198.32 165.32 C 201.13 163.22 203.72 162.66 204.00 158.00
C 208.71 160.44 206.65 152.34 208.00 149.00
C 212.82 150.74 210.18 148.98 211.00 146.00
C 213.60 147.20 215.41 147.61 218.00 148.00
C 215.75 144.13 214.38 140.14 213.00 136.00
C 211.97 133.78 209.94 131.54 209.00 129.00
C 205.23 125.79 203.36 120.65 202.00 116.00
C 198.91 118.18 198.97 115.21 200.00 113.00
C 196.94 116.02 197.40 113.16 196.00 111.00
C 193.97 115.58 201.81 124.32 195.00 125.00
C 197.33 129.50 194.28 142.97 188.00 136.00
C 185.97 138.24 190.15 139.36 189.00 142.00
C 183.67 142.00 181.94 144.52 177.08 146.08 C 172.23 147.64 167.96 149.24 169.00 156.00
C 163.84 154.12 163.01 157.01 162.00 161.00
C 159.41 158.82 163.39 155.06 160.00 154.00
C 158.86 157.28 160.03 160.68 161.00 164.00 Z"/>
</g>
<g fill="None" fill-opacity="0.0" stroke="#A7257C" stroke-opacity="1.00" stroke-width="0.3"><path d="
M 311.00 115.00 
C 309.04 119.77 306.04 124.92 304.00 130.00
C 303.88 131.14 305.40 134.22 306.00 136.00
C 312.33 136.29 320.32 136.99 326.08 138.07 C 331.84 139.14 337.90 140.74 343.23 141.21 C 348.56 141.69 356.86 139.28 360.00 146.00
C 364.86 135.49 371.95 125.46 369.00 113.00
C 366.78 115.02 368.59 119.16 368.00 122.00
C 363.68 121.78 356.28 122.02 352.07 122.93 C 347.87 123.83 340.33 120.26 337.30 120.29 C 334.27 120.32 327.45 123.13 324.01 119.99 C 320.57 116.85 312.47 119.17 311.00 115.00 Z"/>
</g>
<g fill="None" fill-opacity="0.0" stroke="#ABEDF5" stroke-opacity="1.00" stroke-width="0.3"><path d="
M 209.00 129.00 
C 209.94 131.54 211.97 133.78 213.00 136.00
C 211.81 132.43 210.38 127.77 208.00 125.00
C 208.18 126.35 208.55 127.78 209.00 129.00 Z"/>
</g>
<g fill="None" fill-opacity="0.0" stroke="#86227B" stroke-opacity="1.00" stroke-width="0.3"><path d="
M 301.00 138.00 
C 301.03 141.51 301.24 145.59 306.00 149.00
C 307.28 146.25 309.36 147.33 310.00 150.00
C 319.10 144.69 328.29 154.19 336.00 150.00
C 339.70 154.78 348.92 153.55 354.00 157.00
C 353.48 156.03 355.42 153.04 356.00 155.00
C 357.25 152.30 358.68 148.85 360.00 146.00
C 356.86 139.28 348.56 141.69 343.23 141.21 C 337.90 140.74 331.84 139.14 326.08 138.07 C 320.32 136.99 312.33 136.29 306.00 136.00
C 305.40 134.22 303.88 131.14 304.00 130.00
C 302.94 132.64 302.08 135.47 301.00 138.00 Z"/>
</g>
<g fill="None" fill-opacity="0.0" stroke="#B8F0F7" stroke-opacity="1.00" stroke-width="0.3"><path d="
M 170.00 185.00 
C 169.82 184.57 170.00 184.00 170.00 184.00
C 166.36 181.22 162.37 168.72 161.00 164.00
C 157.49 155.96 153.65 145.04 148.00 138.00
C 148.37 142.99 153.20 149.37 155.08 153.92 C 156.96 158.47 159.61 165.92 162.08 169.92 C 164.54 173.92 165.79 183.51 170.00 185.00 Z"/>
</g>
<g fill="None" fill-opacity="0.0" stroke="#6C2379" stroke-opacity="1.00" stroke-width="0.3"><path d="
M 293.00 156.00 
C 292.61 157.67 291.80 162.02 294.00 164.00
C 296.50 162.02 298.92 160.30 300.00 165.00
C 308.34 163.32 322.03 172.33 333.00 173.00
C 332.39 170.29 336.83 172.66 336.00 169.00
C 339.86 171.70 346.57 171.84 343.00 178.00
C 345.11 178.07 345.82 173.23 347.00 175.00
C 349.84 168.65 353.02 161.44 356.00 155.00
C 355.42 153.04 353.48 156.03 354.00 157.00
C 348.92 153.55 339.70 154.78 336.00 150.00
C 328.29 154.19 319.10 144.69 310.00 150.00
C 309.36 147.33 307.28 146.25 306.00 149.00
C 301.24 145.59 301.03 141.51 301.00 138.00
C 298.57 143.70 295.55 150.10 293.00 156.00 Z"/>
</g>
<g fill="None" fill-opacity="0.0" stroke="#06A4F2" stroke-opacity="1.00" stroke-width="0.3"><path d="
M 170.00 184.00 
C 170.00 184.00 169.82 184.57 170.00 185.00
C 170.97 187.35 172.13 189.60 173.00 192.00
C 174.70 195.44 177.39 199.53 179.00 203.00
C 181.20 204.04 189.63 196.53 190.00 194.00
C 197.17 197.11 203.82 180.36 206.00 187.00
C 204.14 180.64 213.52 181.21 212.00 176.00
C 215.61 179.76 214.02 171.32 218.08 172.08 C 222.15 172.84 224.45 170.49 227.00 174.00
C 227.33 170.91 223.00 167.34 225.00 165.00
C 222.84 160.70 221.13 151.20 218.00 148.00
C 215.41 147.61 213.60 147.20 211.00 146.00
C 210.18 148.98 212.82 150.74 208.00 149.00
C 206.65 152.34 208.71 160.44 204.00 158.00
C 203.72 162.66 201.13 163.22 198.32 165.32 C 195.50 167.42 196.38 172.95 191.00 169.00
C 190.08 171.90 187.60 174.09 187.00 177.00
C 181.05 173.85 175.98 179.59 170.00 178.00
C 168.62 179.80 169.17 182.14 170.00 184.00 Z"/>
</g>
<g fill="None" fill-opacity="0.0" stroke="#AEE6F4" stroke-opacity="1.00" stroke-width="0.3"><path d="
M 225.00 165.00 
C 225.55 166.09 226.56 167.15 227.00 168.00
C 224.84 160.99 221.60 154.20 218.00 148.00
C 221.13 151.20 222.84 160.70 225.00 165.00 Z"/>
</g>
<g fill="None" fill-opacity="0.0" stroke="#452172" stroke-opacity="1.00" stroke-width="0.3"><path d="
M 280.00 187.00 
C 280.02 189.55 281.10 193.03 279.00 197.00
C 282.17 194.40 284.10 193.37 286.00 198.00
C 289.38 196.69 294.57 197.46 295.00 202.00
C 299.40 200.46 309.57 200.79 311.00 205.00
C 312.38 199.26 316.35 207.57 319.00 203.00
C 321.38 205.83 328.03 207.58 332.00 210.00
C 337.12 198.41 341.89 186.43 347.00 175.00
C 345.82 173.23 345.11 178.07 343.00 178.00
C 346.57 171.84 339.86 171.70 336.00 169.00
C 336.83 172.66 332.39 170.29 333.00 173.00
C 322.03 172.33 308.34 163.32 300.00 165.00
C 298.92 160.30 296.50 162.02 294.00 164.00
C 291.80 162.02 292.61 157.67 293.00 156.00
C 288.56 166.29 284.50 176.93 280.00 187.00 Z"/>
</g>
<g fill="None" fill-opacity="0.0" stroke="#0B8DE5" stroke-opacity="1.00" stroke-width="0.3"><path d="
M 179.00 203.00 
C 180.14 205.46 180.92 208.40 182.00 211.00
C 182.80 212.92 184.42 215.24 185.00 217.00
C 185.19 215.26 186.33 213.90 186.00 212.00
C 188.72 216.72 192.90 205.45 196.00 210.00
C 199.85 199.56 211.84 198.93 216.00 190.00
C 220.14 191.48 225.71 189.08 225.00 184.00
C 230.39 185.00 231.13 183.12 235.00 187.00
C 231.87 180.89 229.00 174.49 227.00 168.00
C 226.56 167.15 225.55 166.09 225.00 165.00
C 223.00 167.34 227.33 170.91 227.00 174.00
C 224.45 170.49 222.15 172.84 218.08 172.08 C 214.02 171.32 215.61 179.76 212.00 176.00
C 213.52 181.21 204.14 180.64 206.00 187.00
C 203.82 180.36 197.17 197.11 190.00 194.00
C 189.63 196.53 181.20 204.04 179.00 203.00 Z"/>
</g>
<g fill="None" fill-opacity="0.0" stroke="#0D77D2" stroke-opacity="1.00" stroke-width="0.3"><path d="
M 185.00 217.00 
C 184.95 217.49 184.92 218.51 185.00 219.00
C 186.09 221.22 187.93 223.52 189.00 226.00
C 189.88 228.04 191.11 230.15 192.00 232.00
C 192.40 228.44 196.23 228.09 199.00 228.00
C 194.85 226.08 202.43 220.36 205.00 223.00
C 206.15 217.95 211.28 215.13 216.00 214.00
C 215.60 205.44 230.98 207.28 234.00 199.00
C 236.31 200.07 238.64 201.55 240.00 199.00
C 238.48 194.89 237.03 190.97 235.00 187.00
C 231.13 183.12 230.39 185.00 225.00 184.00
C 225.71 189.08 220.14 191.48 216.00 190.00
C 211.84 198.93 199.85 199.56 196.00 210.00
C 192.90 205.45 188.72 216.72 186.00 212.00
C 186.33 213.90 185.19 215.26 185.00 217.00 Z"/>
</g>
<g fill="None" fill-opacity="0.0" stroke="#211F66" stroke-opacity="1.00" stroke-width="0.3"><path d="
M 259.00 236.00 
C 259.12 236.80 260.46 239.51 262.00 239.00
C 260.94 228.22 274.49 228.01 281.00 229.00
C 280.91 222.16 291.60 222.50 296.00 226.00
C 288.97 214.20 311.11 230.28 308.00 224.00
C 313.22 226.25 318.17 229.17 324.00 228.00
C 326.59 221.99 329.33 216.04 332.00 210.00
C 328.03 207.58 321.38 205.83 319.00 203.00
C 316.35 207.57 312.38 199.26 311.00 205.00
C 309.57 200.79 299.40 200.46 295.00 202.00
C 294.57 197.46 289.38 196.69 286.00 198.00
C 284.10 193.37 282.17 194.40 279.00 197.00
C 281.10 193.03 280.02 189.55 280.00 187.00
C 272.88 202.93 264.73 219.26 259.00 236.00 Z"/>
</g>
<g fill="None" fill-opacity="0.0" stroke="#B6E6F2" stroke-opacity="1.00" stroke-width="0.3"><path d="
M 182.00 211.00 
C 180.92 208.40 180.14 205.46 179.00 203.00
C 177.39 199.53 174.70 195.44 173.00 192.00
C 175.60 199.14 178.09 204.74 182.00 211.00 Z"/>
</g>
<g fill="None" fill-opacity="0.0" stroke="#0E5DBB" stroke-opacity="1.00" stroke-width="0.3"><path d="
M 192.00 232.00 
C 193.61 235.37 194.42 239.43 196.00 243.00
C 197.92 242.15 198.78 239.95 199.00 238.00
C 202.42 240.24 207.14 234.36 207.00 231.00
C 208.49 234.54 210.53 231.18 213.00 231.00
C 209.33 228.91 213.75 228.82 216.00 229.00
C 212.71 227.20 216.03 226.43 218.00 228.00
C 219.34 219.32 235.77 219.19 241.00 211.00
C 242.59 212.01 243.85 213.53 246.00 213.00
C 244.01 208.40 241.75 203.74 240.00 199.00
C 238.64 201.55 236.31 200.07 234.00 199.00
C 230.98 207.28 215.60 205.44 216.00 214.00
C 211.28 215.13 206.15 217.95 205.00 223.00
C 202.43 220.36 194.85 226.08 199.00 228.00
C 196.23 228.09 192.40 228.44 192.00 232.00 Z"/>
</g>
<g fill="None" fill-opacity="0.0" stroke="#0F479D" stroke-opacity="1.00" stroke-width="0.3"><path d="
M 196.00 243.00 
C 197.64 246.72 199.37 250.31 201.00 254.00
C 203.12 252.39 203.26 255.81 206.00 254.00
C 206.48 249.33 216.57 248.39 217.00 242.00
C 221.65 245.25 227.36 237.50 232.25 234.25 C 237.15 231.00 242.24 227.93 249.00 226.00
C 248.93 228.81 250.84 229.08 252.00 227.00
C 251.18 222.04 247.98 217.60 246.00 213.00
C 243.85 213.53 242.59 212.01 241.00 211.00
C 235.77 219.19 219.34 219.32 218.00 228.00
C 216.03 226.43 212.71 227.20 216.00 229.00
C 213.75 228.82 209.33 228.91 213.00 231.00
C 210.53 231.18 208.49 234.54 207.00 231.00
C 207.14 234.36 202.42 240.24 199.00 238.00
C 198.78 239.95 197.92 242.15 196.00 243.00 Z"/>
</g>
<g fill="None" fill-opacity="0.0" stroke="#A3D3E8" stroke-opacity="1.00" stroke-width="0.3"><path d="
M 189.00 226.00 
C 187.93 223.52 186.09 221.22 185.00 219.00
C 185.56 222.22 187.66 223.55 189.00 226.00 Z"/>
</g>
<g fill="None" fill-opacity="0.0" stroke="#061546" stroke-opacity="1.00" stroke-width="0.3"><path d="
M 259.00 236.00 
C 255.02 247.63 251.06 265.68 261.00 276.00
C 261.78 276.81 262.37 277.00 263.00 278.00
C 265.71 280.73 270.23 282.53 268.00 287.00
C 264.61 286.82 260.72 285.11 259.00 282.00
C 256.91 280.73 255.40 278.88 254.00 277.00
C 249.91 271.50 247.46 264.79 247.00 258.00
C 246.59 255.74 245.64 252.94 246.00 250.00
C 245.09 252.23 244.62 255.13 245.00 258.00
C 242.58 256.65 240.50 258.48 240.00 261.00
C 229.97 261.27 220.67 274.15 213.00 279.00
C 221.72 297.87 229.78 317.74 254.00 319.00 C 278.22 320.26 291.65 303.08 299.22 283.22 C 306.80 263.37 315.67 247.31 324.00 228.00
C 318.17 229.17 313.22 226.25 308.00 224.00
C 311.11 230.28 288.97 214.20 296.00 226.00
C 291.60 222.50 280.91 222.16 281.00 229.00
C 274.49 228.01 260.94 228.22 262.00 239.00
C 260.46 239.51 259.12 236.80 259.00 236.00 Z"/>
</g>
<g fill="None" fill-opacity="0.0" stroke="#0B2B72" stroke-opacity="1.00" stroke-width="0.3"><path d="
M 201.00 254.00 
C 204.74 262.48 209.22 270.82 213.00 279.00
C 220.67 274.15 229.97 261.27 240.00 261.00
C 240.50 258.48 242.58 256.65 245.00 258.00
C 244.62 255.13 245.09 252.23 246.00 250.00
C 246.17 248.59 246.64 248.93 247.00 248.00
C 247.52 241.39 252.86 232.21 252.00 227.00
C 250.84 229.08 248.93 228.81 249.00 226.00
C 242.24 227.93 237.15 231.00 232.25 234.25 C 227.36 237.50 221.65 245.25 217.00 242.00
C 216.57 248.39 206.48 249.33 206.00 254.00
C 203.26 255.81 203.12 252.39 201.00 254.00 Z"/>
</g>
<g fill="None" fill-opacity="0.0" stroke="#4E5F80" stroke-opacity="1.00" stroke-width="0.3"><path d="
M 246.00 250.00 
C 245.64 252.94 246.59 255.74 247.00 258.00
C 246.78 254.79 246.75 251.21 247.00 248.00
C 246.64 248.93 246.17 248.59 246.00 250.00 Z"/>
</g>
<g fill="None" fill-opacity="0.0" stroke="#8893A4" stroke-opacity="1.00" stroke-width="0.3"><path d="
M 254.00 277.00 
C 255.40 278.88 256.91 280.73 259.00 282.00
C 259.56 282.34 260.53 282.63 261.00 283.00
C 263.26 283.42 264.43 282.32 264.00 280.00
C 263.49 279.45 263.37 278.59 263.00 278.00
C 262.37 277.00 261.78 276.81 261.00 276.00
C 258.32 275.84 257.83 280.25 254.00 277.00 Z"/>
</g>
<g fill="None" fill-opacity="0.0" stroke="#0B1A43" stroke-opacity="1.00" stroke-width="0.3"><path d="
M 321.00 313.00 
C 320.80 315.75 319.20 317.90 318.00 320.00
C 312.64 329.42 321.08 329.81 325.00 322.00
C 329.17 329.97 320.29 338.19 312.33 335.67 C 304.37 333.15 305.24 319.20 314.00 319.00
C 317.45 317.37 317.95 316.56 320.00 313.00
C 311.57 309.87 303.31 315.84 300.98 323.98 C 298.64 332.11 305.10 340.09 313.00 342.00 C 320.90 343.91 331.48 336.55 332.02 329.02 C 332.57 321.50 344.46 313.03 335.70 307.31 C 326.93 301.58 325.37 296.64 336.30 302.70 C 347.24 308.75 342.78 313.20 337.93 320.93 C 333.07 328.65 339.53 339.39 347.33 341.67 C 355.13 343.95 365.98 338.88 367.00 330.00 C 368.02 321.12 362.26 311.26 352.00 313.00
C 354.46 319.34 367.11 326.86 357.23 334.23 C 347.34 341.60 339.05 327.46 345.00 320.00
C 349.46 327.73 355.77 323.71 351.93 317.07 C 348.08 310.43 350.10 304.50 344.25 300.75 C 338.39 297.01 334.27 295.10 334.00 288.00
C 349.66 285.25 328.84 268.33 330.00 285.00
C 322.33 286.41 323.69 291.71 318.77 296.77 C 313.85 301.83 321.56 308.50 321.00 313.00
M 329.00 312.00 
C 332.75 317.93 325.10 316.95 329.00 312.00 Z"/>
</g>
<g fill="None" fill-opacity="0.0" stroke="#2F3E60" stroke-opacity="1.00" stroke-width="0.3"><path d="
M 264.00 280.00 
C 267.36 283.67 264.68 285.84 261.00 283.00
C 260.53 282.63 259.56 282.34 259.00 282.00
C 260.72 285.11 264.61 286.82 268.00 287.00
C 270.23 282.53 265.71 280.73 263.00 278.00
C 263.37 278.59 263.49 279.45 264.00 280.00 Z"/>
</g>
<g fill="None" fill-opacity="0.0" stroke="#52627C" stroke-opacity="1.00" stroke-width="0.3"><path d="
M 261.00 283.00 
C 264.68 285.84 267.36 283.67 264.00 280.00
C 264.43 282.32 263.26 283.42 261.00 283.00 Z"/>
</g>
<g fill="None" fill-opacity="0.0" stroke="#AAB6C6" stroke-opacity="1.00" stroke-width="0.3"><path d="
M 329.00 312.00 
C 325.10 316.95 332.75 317.93 329.00 312.00 Z"/>
</g>
<g fill="None" fill-opacity="0.0" stroke="#8591AA" stroke-opacity="1.00" stroke-width="0.3"><path d="
M 314.00 319.00 
C 315.55 318.91 317.14 318.60 318.00 320.00
C 319.20 317.90 320.80 315.75 321.00 313.00
C 321.00 313.00 320.38 313.22 320.00 313.00
C 317.95 316.56 317.45 317.37 314.00 319.00 Z"/>
</g>
<g fill="None" fill-opacity="0.0" stroke="#E2E5EA" stroke-opacity="1.00" stroke-width="0.3"><path d="
M 318.00 320.00 
C 317.14 318.60 315.55 318.91 314.00 319.00
C 305.24 319.20 304.37 333.15 312.33 335.67 C 320.29 338.19 329.17 329.97 325.00 322.00
C 321.08 329.81 312.64 329.42 318.00 320.00 Z"/>
</g>
<g fill="None" fill-opacity="0.0" stroke="#35AFEE" stroke-opacity="1.00" stroke-width="0.3"><path d="
M 262.00 370.00 
C 269.41 369.54 273.25 361.79 266.08 358.92 C 258.91 356.05 251.98 354.78 245.08 357.08 C 238.18 359.37 235.13 363.63 233.00 370.00 C 230.88 376.36 239.60 382.55 243.32 384.68 C 247.05 386.81 263.36 386.31 258.22 393.22 C 253.08 400.14 244.70 388.20 239.25 389.25 C 233.79 390.29 229.95 398.58 237.77 401.23 C 245.59 403.87 250.57 405.44 258.00 404.00 C 265.42 402.56 269.89 400.87 273.02 394.02 C 276.16 387.18 272.23 381.00 267.07 376.93 C 261.92 372.85 252.73 375.49 248.26 370.75 C 243.79 366.00 261.21 363.19 262.00 370.00 Z"/>
</g>
<g fill="None" fill-opacity="0.0" stroke="#9AD3F0" stroke-opacity="1.00" stroke-width="0.3"><path d="
M 294.00 403.00 
C 291.62 399.60 295.09 392.32 294.00 388.00 C 292.91 383.68 294.54 377.78 294.00 373.00 C 293.46 368.22 294.40 361.92 294.00 357.00
C 298.33 357.00 302.67 357.00 307.00 357.00
C 303.37 353.37 290.97 355.35 293.00 362.00 C 295.03 368.65 291.17 376.91 293.00 383.00 C 294.83 389.09 289.69 398.69 294.00 403.00 Z"/>
</g>
<g fill="None" fill-opacity="0.0" stroke="#36AFEE" stroke-opacity="1.00" stroke-width="0.3"><path d="
M 369.00 366.00 
C 369.50 365.29 369.40 358.82 369.00 358.00
C 362.28 353.57 352.40 357.09 344.00 356.00 C 335.60 354.91 323.82 354.88 328.00 367.00
C 332.33 367.00 336.67 367.00 341.00 367.00
C 339.64 376.76 342.81 382.88 341.00 393.00 C 339.19 403.12 345.84 406.38 356.00 404.00
C 356.00 391.67 356.00 379.33 356.00 367.00
C 359.72 365.96 366.19 368.81 369.00 366.00 Z"/>
</g>
<g fill="None" fill-opacity="0.0" stroke="#32AEEE" stroke-opacity="1.00" stroke-width="0.3"><path d="
M 157.00 385.00 
C 155.44 377.03 151.57 373.85 150.78 365.22 C 149.99 356.60 141.43 355.47 133.00 357.00
C 137.04 372.95 143.46 388.21 148.00 404.00
C 162.20 408.90 166.45 396.42 169.02 386.02 C 171.60 375.63 175.91 367.35 178.00 357.00
C 159.26 351.73 163.40 375.00 157.00 385.00 Z"/>
</g>
<g fill="None" fill-opacity="0.0" stroke="#29ACEE" stroke-opacity="1.00" stroke-width="0.3"><path d="
M 212.00 357.00 
C 207.33 357.00 202.67 357.00 198.00 357.00
C 198.00 372.67 198.00 388.33 198.00 404.00
C 202.67 404.00 207.33 404.00 212.00 404.00
C 212.00 388.33 212.00 372.67 212.00 357.00 Z"/>
</g>
<g fill="None" fill-opacity="0.0" stroke="#29ACEE" stroke-opacity="1.00" stroke-width="0.3"><path d="
M 294.00 403.00 
C 297.67 405.30 303.50 403.36 308.00 404.00
C 306.81 397.13 309.58 386.49 308.00 380.00 C 306.42 373.51 311.50 361.50 307.00 357.00
C 302.67 357.00 298.33 357.00 294.00 357.00
C 294.40 361.92 293.46 368.22 294.00 373.00 C 294.54 377.78 292.91 383.68 294.00 388.00 C 295.09 392.32 291.62 399.60 294.00 403.00 Z"/>
</g>
<g fill="None" fill-opacity="0.0" stroke="#A4D6EF" stroke-opacity="1.00" stroke-width="0.3"><path d="
M 369.00 366.00 
C 370.78 364.22 370.35 359.87 369.00 358.00
C 369.40 358.82 369.50 365.29 369.00 366.00 Z"/>
</g>
<g fill="None" fill-opacity="0.0" stroke="#BB438A" stroke-opacity="1.00" stroke-width="0.3"><path d="
M 192.00 431.00 
C 158.38 424.04 145.26 473.36 177.93 484.07 C 210.60 494.79 223.87 437.60 192.00 431.00
M 185.00 433.00 
C 213.81 433.08 215.66 481.78 185.00 482.00 C 154.33 482.22 154.58 432.91 185.00 433.00 Z"/>
</g>
<g fill="None" fill-opacity="0.0" stroke="#BB448A" stroke-opacity="1.00" stroke-width="0.3"><path d="
M 246.00 431.00 
C 237.41 426.56 227.86 432.46 230.00 441.00 C 232.14 449.54 229.03 458.10 230.00 466.00 C 230.98 473.90 233.04 478.95 239.77 482.23 C 246.51 485.51 254.12 485.87 260.98 483.98 C 267.83 482.08 272.93 479.14 274.67 471.67 C 276.41 464.20 276.02 456.46 276.00 448.00 C 275.98 439.54 278.57 430.20 267.00 431.00 C 255.43 431.80 262.30 441.36 260.00 449.00 C 257.70 456.64 265.44 467.16 256.00 471.00 C 246.56 474.84 248.39 458.93 248.00 454.00 C 247.61 449.06 250.85 433.50 246.00 431.00
M 245.00 434.00 
C 247.96 443.92 237.45 474.09 254.00 474.00 C 270.56 473.90 260.02 444.00 263.00 434.00
C 266.33 434.00 269.67 434.00 273.00 434.00
C 272.13 453.22 279.73 481.56 253.00 482.00 C 226.27 482.44 232.47 453.37 232.00 434.00
C 236.33 434.00 240.67 434.00 245.00 434.00 Z"/>
</g>
<g fill="None" fill-opacity="0.0" stroke="#BB4389" stroke-opacity="1.00" stroke-width="0.3"><path d="
M 327.00 445.00 
C 334.62 444.99 341.21 447.16 341.00 438.00 C 340.79 428.84 335.46 431.27 328.00 431.00 C 320.54 430.73 314.45 431.33 307.00 431.00 C 299.55 430.67 294.75 430.26 295.00 439.00 C 295.25 447.74 302.06 444.48 309.00 445.00
C 307.93 455.62 310.42 466.40 309.00 477.00 C 307.58 487.60 328.43 487.58 327.00 477.00 C 325.57 466.42 328.07 455.60 327.00 445.00
M 339.00 434.00 
C 342.85 447.27 322.07 437.34 324.00 450.00 C 325.93 462.66 322.55 469.84 324.00 482.00
C 320.00 482.00 316.00 482.00 312.00 482.00
C 308.69 468.38 321.78 437.03 298.00 442.00
C 295.09 430.87 306.34 434.27 314.00 434.00 C 321.66 433.73 331.17 434.20 339.00 434.00 Z"/>
</g>
<g fill="None" fill-opacity="0.0" stroke="#EEECED" stroke-opacity="1.00" stroke-width="0.3"><path d="
M 185.00 433.00 
C 154.58 432.91 154.33 482.22 185.00 482.00 C 215.66 481.78 213.81 433.08 185.00 433.00
M 188.00 441.00 
C 200.72 444.98 194.86 479.68 181.00 474.00 C 167.14 468.32 174.70 436.84 188.00 441.00 Z"/>
</g>
<g fill="None" fill-opacity="0.0" stroke="#ECEAEB" stroke-opacity="1.00" stroke-width="0.3"><path d="
M 245.00 434.00 
C 240.67 434.00 236.33 434.00 232.00 434.00
C 232.47 453.37 226.27 482.44 253.00 482.00 C 279.73 481.56 272.13 453.22 273.00 434.00
C 269.67 434.00 266.33 434.00 263.00 434.00
C 260.02 444.00 270.56 473.90 254.00 474.00 C 237.45 474.09 247.96 443.92 245.00 434.00 Z"/>
</g>
<g fill="None" fill-opacity="0.0" stroke="#E9E9E9" stroke-opacity="1.00" stroke-width="0.3"><path d="
M 339.00 434.00 
C 331.17 434.20 321.66 433.73 314.00 434.00 C 306.34 434.27 295.09 430.87 298.00 442.00
C 321.78 437.03 308.69 468.38 312.00 482.00
C 316.00 482.00 320.00 482.00 324.00 482.00
C 322.55 469.84 325.93 462.66 324.00 450.00 C 322.07 437.34 342.85 447.27 339.00 434.00 Z"/>
</g>
<g fill="None" fill-opacity="0.0" stroke="#BC458B" stroke-opacity="1.00" stroke-width="0.3"><path d="
M 188.00 441.00 
C 174.70 436.84 167.14 468.32 181.00 474.00 C 194.86 479.68 200.72 444.98 188.00 441.00
M 188.00 444.00 
C 193.07 446.24 190.39 456.41 191.00 461.00 C 191.61 465.59 189.28 475.00 181.93 471.07 C 174.57 467.14 175.71 438.56 188.00 444.00 Z"/>
</g>
<g fill="None" fill-opacity="0.0" stroke="#EEECED" stroke-opacity="1.00" stroke-width="0.3"><path d="
M 188.00 444.00 
C 175.71 438.56 174.57 467.14 181.93 471.07 C 189.28 475.00 191.61 465.59 191.00 461.00 C 190.39 456.41 193.07 446.24 188.00 444.00 Z"/>
</g>
<g fill="#F5F5F5" fill-opacity="1.00" stroke="None">
<path d="
M 0.00 500.00 
L 500.00 500.00
L 500.00 0.00
L 0.00 0.00
L 0.00 500.00
M 208.00 124.00 
C 208.11 124.47 208.00 125.00 208.00 125.00
C 210.38 127.77 211.81 132.43 213.00 136.00
C 214.38 140.14 215.75 144.13 218.00 148.00
C 221.60 154.20 224.84 160.99 227.00 168.00
C 229.00 174.49 231.87 180.89 235.00 187.00
C 237.03 190.97 238.48 194.89 240.00 199.00
C 241.75 203.74 244.01 208.40 246.00 213.00
C 247.98 217.60 251.18 222.04 252.00 227.00
C 252.86 232.21 247.52 241.39 247.00 248.00
C 246.75 251.21 246.78 254.79 247.00 258.00
C 247.46 264.79 249.91 271.50 254.00 277.00
C 257.83 280.25 258.32 275.84 261.00 276.00
C 251.06 265.68 255.02 247.63 259.00 236.00
C 264.73 219.26 272.88 202.93 280.00 187.00
C 284.50 176.93 288.56 166.29 293.00 156.00
C 295.55 150.10 298.57 143.70 301.00 138.00
C 302.08 135.47 302.94 132.64 304.00 130.00
C 306.04 124.92 309.04 119.77 311.00 115.00
C 312.27 111.91 312.92 108.91 315.00 106.00
C 327.56 88.42 356.39 85.79 367.00 107.00
C 367.97 108.95 368.50 110.90 369.00 113.00
C 371.95 125.46 364.86 135.49 360.00 146.00
C 358.68 148.85 357.25 152.30 356.00 155.00
C 353.02 161.44 349.84 168.65 347.00 175.00
C 341.89 186.43 337.12 198.41 332.00 210.00
C 329.33 216.04 326.59 221.99 324.00 228.00
C 315.67 247.31 306.80 263.37 299.22 283.22 C 291.65 303.08 278.22 320.26 254.00 319.00 C 229.78 317.74 221.72 297.87 213.00 279.00
C 209.22 270.82 204.74 262.48 201.00 254.00
C 199.37 250.31 197.64 246.72 196.00 243.00
C 194.42 239.43 193.61 235.37 192.00 232.00
C 191.11 230.15 189.88 228.04 189.00 226.00
C 187.66 223.55 185.56 222.22 185.00 219.00
C 184.92 218.51 184.95 217.49 185.00 217.00
C 184.42 215.24 182.80 212.92 182.00 211.00
C 178.09 204.74 175.60 199.14 173.00 192.00
C 172.13 189.60 170.97 187.35 170.00 185.00
C 165.79 183.51 164.54 173.92 162.08 169.92 C 159.61 165.92 156.96 158.47 155.08 153.92 C 153.20 149.37 148.37 142.99 148.00 138.00
C 147.96 137.50 148.00 137.00 148.00 137.00
C 141.37 131.92 141.90 116.55 145.00 110.00
C 151.58 96.09 164.39 89.92 180.00 92.00
C 194.19 93.89 205.04 111.39 208.00 124.00
M 320.00 313.00 
C 320.38 313.22 321.00 313.00 321.00 313.00
C 321.56 308.50 313.85 301.83 318.77 296.77 C 323.69 291.71 322.33 286.41 330.00 285.00
C 328.84 268.33 349.66 285.25 334.00 288.00
C 334.27 295.10 338.39 297.01 344.25 300.75 C 350.10 304.50 348.08 310.43 351.93 317.07 C 355.77 323.71 349.46 327.73 345.00 320.00
C 339.05 327.46 347.34 341.60 357.23 334.23 C 367.11 326.86 354.46 319.34 352.00 313.00
C 362.26 311.26 368.02 321.12 367.00 330.00 C 365.98 338.88 355.13 343.95 347.33 341.67 C 339.53 339.39 333.07 328.65 337.93 320.93 C 342.78 313.20 347.24 308.75 336.30 302.70 C 325.37 296.64 326.93 301.58 335.70 307.31 C 344.46 313.03 332.57 321.50 332.02 329.02 C 331.48 336.55 320.90 343.91 313.00 342.00 C 305.10 340.09 298.64 332.11 300.98 323.98 C 303.31 315.84 311.57 309.87 320.00 313.00
M 262.00 370.00 
C 261.21 363.19 243.79 366.00 248.26 370.75 C 252.73 375.49 261.92 372.85 267.07 376.93 C 272.23 381.00 276.16 387.18 273.02 394.02 C 269.89 400.87 265.42 402.56 258.00 404.00 C 250.57 405.44 245.59 403.87 237.77 401.23 C 229.95 398.58 233.79 390.29 239.25 389.25 C 244.70 388.20 253.08 400.14 258.22 393.22 C 263.36 386.31 247.05 386.81 243.32 384.68 C 239.60 382.55 230.88 376.36 233.00 370.00 C 235.13 363.63 238.18 359.37 245.08 357.08 C 251.98 354.78 258.91 356.05 266.08 358.92 C 273.25 361.79 269.41 369.54 262.00 370.00
M 307.00 357.00 
C 311.50 361.50 306.42 373.51 308.00 380.00 C 309.58 386.49 306.81 397.13 308.00 404.00
C 303.50 403.36 297.67 405.30 294.00 403.00
C 289.69 398.69 294.83 389.09 293.00 383.00 C 291.17 376.91 295.03 368.65 293.00 362.00 C 290.97 355.35 303.37 353.37 307.00 357.00
M 369.00 358.00 
C 370.35 359.87 370.78 364.22 369.00 366.00
C 366.19 368.81 359.72 365.96 356.00 367.00
C 356.00 379.33 356.00 391.67 356.00 404.00
C 345.84 406.38 339.19 403.12 341.00 393.00 C 342.81 382.88 339.64 376.76 341.00 367.00
C 336.67 367.00 332.33 367.00 328.00 367.00
C 323.82 354.88 335.60 354.91 344.00 356.00 C 352.40 357.09 362.28 353.57 369.00 358.00
M 157.00 385.00 
C 163.40 375.00 159.26 351.73 178.00 357.00
C 175.91 367.35 171.60 375.63 169.02 386.02 C 166.45 396.42 162.20 408.90 148.00 404.00
C 143.46 388.21 137.04 372.95 133.00 357.00
C 141.43 355.47 149.99 356.60 150.78 365.22 C 151.57 373.85 155.44 377.03 157.00 385.00
M 212.00 357.00 
C 212.00 372.67 212.00 388.33 212.00 404.00
C 207.33 404.00 202.67 404.00 198.00 404.00
C 198.00 388.33 198.00 372.67 198.00 357.00
C 202.67 357.00 207.33 357.00 212.00 357.00
M 192.00 431.00 
C 223.87 437.60 210.60 494.79 177.93 484.07 C 145.26 473.36 158.38 424.04 192.00 431.00
M 246.00 431.00 
C 250.85 433.50 247.61 449.06 248.00 454.00 C 248.39 458.93 246.56 474.84 256.00 471.00 C 265.44 467.16 257.70 456.64 260.00 449.00 C 262.30 441.36 255.43 431.80 267.00 431.00 C 278.57 430.20 275.98 439.54 276.00 448.00 C 276.02 456.46 276.41 464.20 274.67 471.67 C 272.93 479.14 267.83 482.08 260.98 483.98 C 254.12 485.87 246.51 485.51 239.77 482.23 C 233.04 478.95 230.98 473.90 230.00 466.00 C 229.03 458.10 232.14 449.54 230.00 441.00 C 227.86 432.46 237.41 426.56 246.00 431.00
M 327.00 445.00 
C 328.07 455.60 325.57 466.42 327.00 477.00 C 328.43 487.58 307.58 487.60 309.00 477.00 C 310.42 466.40 307.93 455.62 309.00 445.00
C 302.06 444.48 295.25 447.74 295.00 439.00 C 294.75 430.26 299.55 430.67 307.00 431.00 C 314.45 431.33 320.54 430.73 328.00 431.00 C 335.46 431.27 340.79 428.84 341.00 438.00 C 341.21 447.16 334.62 444.99 327.00 445.00 Z"/>
</g>
<g fill="#0CC5FC" fill-opacity="1.00" stroke="None">
<path d="
M 145.00 110.00 
C 141.86 119.80 145.88 127.99 148.00 137.00
C 148.00 137.00 147.96 137.50 148.00 138.00
C 153.65 145.04 157.49 155.96 161.00 164.00
C 160.03 160.68 158.86 157.28 160.00 154.00
C 163.39 155.06 159.41 158.82 162.00 161.00
C 163.01 157.01 163.84 154.12 169.00 156.00
C 167.96 149.24 172.23 147.64 177.08 146.08 C 181.94 144.52 183.67 142.00 189.00 142.00
C 190.15 139.36 185.97 138.24 188.00 136.00
C 194.28 142.97 197.33 129.50 195.00 125.00
C 201.81 124.32 193.97 115.58 196.00 111.00
C 197.40 113.16 196.94 116.02 200.00 113.00
C 198.97 115.21 198.91 118.18 202.00 116.00
C 203.36 120.65 205.23 125.79 209.00 129.00
C 208.55 127.78 208.18 126.35 208.00 125.00
C 208.00 125.00 208.11 124.47 208.00 124.00
C 199.52 113.42 196.04 95.55 180.00 92.00
C 164.39 89.92 151.58 96.09 145.00 110.00 Z"/>
</g>
<g fill="#B6EFF5" fill-opacity="1.00" stroke="None">
<path d="
M 208.00 124.00 
C 205.04 111.39 194.19 93.89 180.00 92.00
C 196.04 95.55 199.52 113.42 208.00 124.00 Z"/>
</g>
<g fill="#E62E7D" fill-opacity="1.00" stroke="None">
<path d="
M 315.00 106.00 
C 314.97 106.68 316.95 108.87 317.00 110.00
C 334.54 111.76 349.41 114.62 367.00 112.00
C 367.27 110.40 364.57 108.01 367.00 107.00
C 356.39 85.79 327.56 88.42 315.00 106.00 Z"/>
</g>
<g fill="#C7267C" fill-opacity="1.00" stroke="None">
<path d="
M 311.00 115.00 
C 312.47 119.17 320.57 116.85 324.01 119.99 C 327.45 123.13 334.27 120.32 337.30 120.29 C 340.33 120.26 347.87 123.83 352.07 122.93 C 356.28 122.02 363.68 121.78 368.00 122.00
C 368.59 119.16 366.78 115.02 369.00 113.00
C 368.50 110.90 367.97 108.95 367.00 107.00
C 364.57 108.01 367.27 110.40 367.00 112.00
C 349.41 114.62 334.54 111.76 317.00 110.00
C 316.95 108.87 314.97 106.68 315.00 106.00
C 312.92 108.91 312.27 111.91 311.00 115.00 Z"/>
</g>
<g fill="#ACEFF6" fill-opacity="1.00" stroke="None">
<path d="
M 148.00 137.00 
C 145.88 127.99 141.86 119.80 145.00 110.00
C 141.90 116.55 141.37 131.92 148.00 137.00 Z"/>
</g>
<g fill="#05B8FB" fill-opacity="1.00" stroke="None">
<path d="
M 161.00 164.00 
C 162.37 168.72 166.36 181.22 170.00 184.00
C 169.17 182.14 168.62 179.80 170.00 178.00
C 175.98 179.59 181.05 173.85 187.00 177.00
C 187.60 174.09 190.08 171.90 191.00 169.00
C 196.38 172.95 195.50 167.42 198.32 165.32 C 201.13 163.22 203.72 162.66 204.00 158.00
C 208.71 160.44 206.65 152.34 208.00 149.00
C 212.82 150.74 210.18 148.98 211.00 146.00
C 213.60 147.20 215.41 147.61 218.00 148.00
C 215.75 144.13 214.38 140.14 213.00 136.00
C 211.97 133.78 209.94 131.54 209.00 129.00
C 205.23 125.79 203.36 120.65 202.00 116.00
C 198.91 118.18 198.97 115.21 200.00 113.00
C 196.94 116.02 197.40 113.16 196.00 111.00
C 193.97 115.58 201.81 124.32 195.00 125.00
C 197.33 129.50 194.28 142.97 188.00 136.00
C 185.97 138.24 190.15 139.36 189.00 142.00
C 183.67 142.00 181.94 144.52 177.08 146.08 C 172.23 147.64 167.96 149.24 169.00 156.00
C 163.84 154.12 163.01 157.01 162.00 161.00
C 159.41 158.82 163.39 155.06 160.00 154.00
C 158.86 157.28 160.03 160.68 161.00 164.00 Z"/>
</g>
<g fill="#A7257C" fill-opacity="1.00" stroke="None">
<path d="
M 311.00 115.00 
C 309.04 119.77 306.04 124.92 304.00 130.00
C 303.88 131.14 305.40 134.22 306.00 136.00
C 312.33 136.29 320.32 136.99 326.08 138.07 C 331.84 139.14 337.90 140.74 343.23 141.21 C 348.56 141.69 356.86 139.28 360.00 146.00
C 364.86 135.49 371.95 125.46 369.00 113.00
C 366.78 115.02 368.59 119.16 368.00 122.00
C 363.68 121.78 356.28 122.02 352.07 122.93 C 347.87 123.83 340.33 120.26 337.30 120.29 C 334.27 120.32 327.45 123.13 324.01 119.99 C 320.57 116.85 312.47 119.17 311.00 115.00 Z"/>
</g>
<g fill="#ABEDF5" fill-opacity="1.00" stroke="None">
<path d="
M 209.00 129.00 
C 209.94 131.54 211.97 133.78 213.00 136.00
C 211.81 132.43 210.38 127.77 208.00 125.00
C 208.18 126.35 208.55 127.78 209.00 129.00 Z"/>
</g>
<g fill="#86227B" fill-opacity="1.00" stroke="None">
<path d="
M 301.00 138.00 
C 301.03 141.51 301.24 145.59 306.00 149.00
C 307.28 146.25 309.36 147.33 310.00 150.00
C 319.10 144.69 328.29 154.19 336.00 150.00
C 339.70 154.78 348.92 153.55 354.00 157.00
C 353.48 156.03 355.42 153.04 356.00 155.00
C 357.25 152.30 358.68 148.85 360.00 146.00
C 356.86 139.28 348.56 141.69 343.23 141.21 C 337.90 140.74 331.84 139.14 326.08 138.07 C 320.32 136.99 312.33 136.29 306.00 136.00
C 305.40 134.22 303.88 131.14 304.00 130.00
C 302.94 132.64 302.08 135.47 301.00 138.00 Z"/>
</g>
<g fill="#B8F0F7" fill-opacity="1.00" stroke="None">
<path d="
M 170.00 185.00 
C 169.82 184.57 170.00 184.00 170.00 184.00
C 166.36 181.22 162.37 168.72 161.00 164.00
C 157.49 155.96 153.65 145.04 148.00 138.00
C 148.37 142.99 153.20 149.37 155.08 153.92 C 156.96 158.47 159.61 165.92 162.08 169.92 C 164.54 173.92 165.79 183.51 170.00 185.00 Z"/>
</g>
<g fill="#6C2379" fill-opacity="1.00" stroke="None">
<path d="
M 293.00 156.00 
C 292.61 157.67 291.80 162.02 294.00 164.00
C 296.50 162.02 298.92 160.30 300.00 165.00
C 308.34 163.32 322.03 172.33 333.00 173.00
C 332.39 170.29 336.83 172.66 336.00 169.00
C 339.86 171.70 346.57 171.84 343.00 178.00
C 345.11 178.07 345.82 173.23 347.00 175.00
C 349.84 168.65 353.02 161.44 356.00 155.00
C 355.42 153.04 353.48 156.03 354.00 157.00
C 348.92 153.55 339.70 154.78 336.00 150.00
C 328.29 154.19 319.10 144.69 310.00 150.00
C 309.36 147.33 307.28 146.25 306.00 149.00
C 301.24 145.59 301.03 141.51 301.00 138.00
C 298.57 143.70 295.55 150.10 293.00 156.00 Z"/>
</g>
<g fill="#06A4F2" fill-opacity="1.00" stroke="None">
<path d="
M 170.00 184.00 
C 170.00 184.00 169.82 184.57 170.00 185.00
C 170.97 187.35 172.13 189.60 173.00 192.00
C 174.70 195.44 177.39 199.53 179.00 203.00
C 181.20 204.04 189.63 196.53 190.00 194.00
C 197.17 197.11 203.82 180.36 206.00 187.00
C 204.14 180.64 213.52 181.21 212.00 176.00
C 215.61 179.76 214.02 171.32 218.08 172.08 C 222.15 172.84 224.45 170.49 227.00 174.00
C 227.33 170.91 223.00 167.34 225.00 165.00
C 222.84 160.70 221.13 151.20 218.00 148.00
C 215.41 147.61 213.60 147.20 211.00 146.00
C 210.18 148.98 212.82 150.74 208.00 149.00
C 206.65 152.34 208.71 160.44 204.00 158.00
C 203.72 162.66 201.13 163.22 198.32 165.32 C 195.50 167.42 196.38 172.95 191.00 169.00
C 190.08 171.90 187.60 174.09 187.00 177.00
C 181.05 173.85 175.98 179.59 170.00 178.00
C 168.62 179.80 169.17 182.14 170.00 184.00 Z"/>
</g>
<g fill="#AEE6F4" fill-opacity="1.00" stroke="None">
<path d="
M 225.00 165.00 
C 225.55 166.09 226.56 167.15 227.00 168.00
C 224.84 160.99 221.60 154.20 218.00 148.00
C 221.13 151.20 222.84 160.70 225.00 165.00 Z"/>
</g>
<g fill="#452172" fill-opacity="1.00" stroke="None">
<path d="
M 280.00 187.00 
C 280.02 189.55 281.10 193.03 279.00 197.00
C 282.17 194.40 284.10 193.37 286.00 198.00
C 289.38 196.69 294.57 197.46 295.00 202.00
C 299.40 200.46 309.57 200.79 311.00 205.00
C 312.38 199.26 316.35 207.57 319.00 203.00
C 321.38 205.83 328.03 207.58 332.00 210.00
C 337.12 198.41 341.89 186.43 347.00 175.00
C 345.82 173.23 345.11 178.07 343.00 178.00
C 346.57 171.84 339.86 171.70 336.00 169.00
C 336.83 172.66 332.39 170.29 333.00 173.00
C 322.03 172.33 308.34 163.32 300.00 165.00
C 298.92 160.30 296.50 162.02 294.00 164.00
C 291.80 162.02 292.61 157.67 293.00 156.00
C 288.56 166.29 284.50 176.93 280.00 187.00 Z"/>
</g>
<g fill="#0B8DE5" fill-opacity="1.00" stroke="None">
<path d="
M 179.00 203.00 
C 180.14 205.46 180.92 208.40 182.00 211.00
C 182.80 212.92 184.42 215.24 185.00 217.00
C 185.19 215.26 186.33 213.90 186.00 212.00
C 188.72 216.72 192.90 205.45 196.00 210.00
C 199.85 199.56 211.84 198.93 216.00 190.00
C 220.14 191.48 225.71 189.08 225.00 184.00
C 230.39 185.00 231.13 183.12 235.00 187.00
C 231.87 180.89 229.00 174.49 227.00 168.00
C 226.56 167.15 225.55 166.09 225.00 165.00
C 223.00 167.34 227.33 170.91 227.00 174.00
C 224.45 170.49 222.15 172.84 218.08 172.08 C 214.02 171.32 215.61 179.76 212.00 176.00
C 213.52 181.21 204.14 180.64 206.00 187.00
C 203.82 180.36 197.17 197.11 190.00 194.00
C 189.63 196.53 181.20 204.04 179.00 203.00 Z"/>
</g>
<g fill="#0D77D2" fill-opacity="1.00" stroke="None">
<path d="
M 185.00 217.00 
C 184.95 217.49 184.92 218.51 185.00 219.00
C 186.09 221.22 187.93 223.52 189.00 226.00
C 189.88 228.04 191.11 230.15 192.00 232.00
C 192.40 228.44 196.23 228.09 199.00 228.00
C 194.85 226.08 202.43 220.36 205.00 223.00
C 206.15 217.95 211.28 215.13 216.00 214.00
C 215.60 205.44 230.98 207.28 234.00 199.00
C 236.31 200.07 238.64 201.55 240.00 199.00
C 238.48 194.89 237.03 190.97 235.00 187.00
C 231.13 183.12 230.39 185.00 225.00 184.00
C 225.71 189.08 220.14 191.48 216.00 190.00
C 211.84 198.93 199.85 199.56 196.00 210.00
C 192.90 205.45 188.72 216.72 186.00 212.00
C 186.33 213.90 185.19 215.26 185.00 217.00 Z"/>
</g>
<g fill="#211F66" fill-opacity="1.00" stroke="None">
<path d="
M 259.00 236.00 
C 259.12 236.80 260.46 239.51 262.00 239.00
C 260.94 228.22 274.49 228.01 281.00 229.00
C 280.91 222.16 291.60 222.50 296.00 226.00
C 288.97 214.20 311.11 230.28 308.00 224.00
C 313.22 226.25 318.17 229.17 324.00 228.00
C 326.59 221.99 329.33 216.04 332.00 210.00
C 328.03 207.58 321.38 205.83 319.00 203.00
C 316.35 207.57 312.38 199.26 311.00 205.00
C 309.57 200.79 299.40 200.46 295.00 202.00
C 294.57 197.46 289.38 196.69 286.00 198.00
C 284.10 193.37 282.17 194.40 279.00 197.00
C 281.10 193.03 280.02 189.55 280.00 187.00
C 272.88 202.93 264.73 219.26 259.00 236.00 Z"/>
</g>
<g fill="#B6E6F2" fill-opacity="1.00" stroke="None">
<path d="
M 182.00 211.00 
C 180.92 208.40 180.14 205.46 179.00 203.00
C 177.39 199.53 174.70 195.44 173.00 192.00
C 175.60 199.14 178.09 204.74 182.00 211.00 Z"/>
</g>
<g fill="#0E5DBB" fill-opacity="1.00" stroke="None">
<path d="
M 192.00 232.00 
C 193.61 235.37 194.42 239.43 196.00 243.00
C 197.92 242.15 198.78 239.95 199.00 238.00
C 202.42 240.24 207.14 234.36 207.00 231.00
C 208.49 234.54 210.53 231.18 213.00 231.00
C 209.33 228.91 213.75 228.82 216.00 229.00
C 212.71 227.20 216.03 226.43 218.00 228.00
C 219.34 219.32 235.77 219.19 241.00 211.00
C 242.59 212.01 243.85 213.53 246.00 213.00
C 244.01 208.40 241.75 203.74 240.00 199.00
C 238.64 201.55 236.31 200.07 234.00 199.00
C 230.98 207.28 215.60 205.44 216.00 214.00
C 211.28 215.13 206.15 217.95 205.00 223.00
C 202.43 220.36 194.85 226.08 199.00 228.00
C 196.23 228.09 192.40 228.44 192.00 232.00 Z"/>
</g>
<g fill="#0F479D" fill-opacity="1.00" stroke="None">
<path d="
M 196.00 243.00 
C 197.64 246.72 199.37 250.31 201.00 254.00
C 203.12 252.39 203.26 255.81 206.00 254.00
C 206.48 249.33 216.57 248.39 217.00 242.00
C 221.65 245.25 227.36 237.50 232.25 234.25 C 237.15 231.00 242.24 227.93 249.00 226.00
C 248.93 228.81 250.84 229.08 252.00 227.00
C 251.18 222.04 247.98 217.60 246.00 213.00
C 243.85 213.53 242.59 212.01 241.00 211.00
C 235.77 219.19 219.34 219.32 218.00 228.00
C 216.03 226.43 212.71 227.20 216.00 229.00
C 213.75 228.82 209.33 228.91 213.00 231.00
C 210.53 231.18 208.49 234.54 207.00 231.00
C 207.14 234.36 202.42 240.24 199.00 238.00
C 198.78 239.95 197.92 242.15 196.00 243.00 Z"/>
</g>
<g fill="#A3D3E8" fill-opacity="1.00" stroke="None">
<path d="
M 189.00 226.00 
C 187.93 223.52 186.09 221.22 185.00 219.00
C 185.56 222.22 187.66 223.55 189.00 226.00 Z"/>
</g>
<g fill="#061546" fill-opacity="1.00" stroke="None">
<path d="
M 259.00 236.00 
C 255.02 247.63 251.06 265.68 261.00 276.00
C 261.78 276.81 262.37 277.00 263.00 278.00
C 265.71 280.73 270.23 282.53 268.00 287.00
C 264.61 286.82 260.72 285.11 259.00 282.00
C 256.91 280.73 255.40 278.88 254.00 277.00
C 249.91 271.50 247.46 264.79 247.00 258.00
C 246.59 255.74 245.64 252.94 246.00 250.00
C 245.09 252.23 244.62 255.13 245.00 258.00
C 242.58 256.65 240.50 258.48 240.00 261.00
C 229.97 261.27 220.67 274.15 213.00 279.00
C 221.72 297.87 229.78 317.74 254.00 319.00 C 278.22 320.26 291.65 303.08 299.22 283.22 C 306.80 263.37 315.67 247.31 324.00 228.00
C 318.17 229.17 313.22 226.25 308.00 224.00
C 311.11 230.28 288.97 214.20 296.00 226.00
C 291.60 222.50 280.91 222.16 281.00 229.00
C 274.49 228.01 260.94 228.22 262.00 239.00
C 260.46 239.51 259.12 236.80 259.00 236.00 Z"/>
</g>
<g fill="#0B2B72" fill-opacity="1.00" stroke="None">
<path d="
M 201.00 254.00 
C 204.74 262.48 209.22 270.82 213.00 279.00
C 220.67 274.15 229.97 261.27 240.00 261.00
C 240.50 258.48 242.58 256.65 245.00 258.00
C 244.62 255.13 245.09 252.23 246.00 250.00
C 246.17 248.59 246.64 248.93 247.00 248.00
C 247.52 241.39 252.86 232.21 252.00 227.00
C 250.84 229.08 248.93 228.81 249.00 226.00
C 242.24 227.93 237.15 231.00 232.25 234.25 C 227.36 237.50 221.65 245.25 217.00 242.00
C 216.57 248.39 206.48 249.33 206.00 254.00
C 203.26 255.81 203.12 252.39 201.00 254.00 Z"/>
</g>
<g fill="#4E5F80" fill-opacity="1.00" stroke="None">
<path d="
M 246.00 250.00 
C 245.64 252.94 246.59 255.74 247.00 258.00
C 246.78 254.79 246.75 251.21 247.00 248.00
C 246.64 248.93 246.17 248.59 246.00 250.00 Z"/>
</g>
<g fill="#8893A4" fill-opacity="1.00" stroke="None">
<path d="
M 254.00 277.00 
C 255.40 278.88 256.91 280.73 259.00 282.00
C 259.56 282.34 260.53 282.63 261.00 283.00
C 263.26 283.42 264.43 282.32 264.00 280.00
C 263.49 279.45 263.37 278.59 263.00 278.00
C 262.37 277.00 261.78 276.81 261.00 276.00
C 258.32 275.84 257.83 280.25 254.00 277.00 Z"/>
</g>
<g fill="#0B1A43" fill-opacity="1.00" stroke="None">
<path d="
M 321.00 313.00 
C 320.80 315.75 319.20 317.90 318.00 320.00
C 312.64 329.42 321.08 329.81 325.00 322.00
C 329.17 329.97 320.29 338.19 312.33 335.67 C 304.37 333.15 305.24 319.20 314.00 319.00
C 317.45 317.37 317.95 316.56 320.00 313.00
C 311.57 309.87 303.31 315.84 300.98 323.98 C 298.64 332.11 305.10 340.09 313.00 342.00 C 320.90 343.91 331.48 336.55 332.02 329.02 C 332.57 321.50 344.46 313.03 335.70 307.31 C 326.93 301.58 325.37 296.64 336.30 302.70 C 347.24 308.75 342.78 313.20 337.93 320.93 C 333.07 328.65 339.53 339.39 347.33 341.67 C 355.13 343.95 365.98 338.88 367.00 330.00 C 368.02 321.12 362.26 311.26 352.00 313.00
C 354.46 319.34 367.11 326.86 357.23 334.23 C 347.34 341.60 339.05 327.46 345.00 320.00
C 349.46 327.73 355.77 323.71 351.93 317.07 C 348.08 310.43 350.10 304.50 344.25 300.75 C 338.39 297.01 334.27 295.10 334.00 288.00
C 349.66 285.25 328.84 268.33 330.00 285.00
C 322.33 286.41 323.69 291.71 318.77 296.77 C 313.85 301.83 321.56 308.50 321.00 313.00
M 329.00 312.00 
C 332.75 317.93 325.10 316.95 329.00 312.00 Z"/>
</g>
<g fill="#2F3E60" fill-opacity="1.00" stroke="None">
<path d="
M 264.00 280.00 
C 267.36 283.67 264.68 285.84 261.00 283.00
C 260.53 282.63 259.56 282.34 259.00 282.00
C 260.72 285.11 264.61 286.82 268.00 287.00
C 270.23 282.53 265.71 280.73 263.00 278.00
C 263.37 278.59 263.49 279.45 264.00 280.00 Z"/>
</g>
<g fill="#52627C" fill-opacity="1.00" stroke="None">
<path d="
M 261.00 283.00 
C 264.68 285.84 267.36 283.67 264.00 280.00
C 264.43 282.32 263.26 283.42 261.00 283.00 Z"/>
</g>
<g fill="#AAB6C6" fill-opacity="1.00" stroke="None">
<path d="
M 329.00 312.00 
C 325.10 316.95 332.75 317.93 329.00 312.00 Z"/>
</g>
<g fill="#8591AA" fill-opacity="1.00" stroke="None">
<path d="
M 314.00 319.00 
C 315.55 318.91 317.14 318.60 318.00 320.00
C 319.20 317.90 320.80 315.75 321.00 313.00
C 321.00 313.00 320.38 313.22 320.00 313.00
C 317.95 316.56 317.45 317.37 314.00 319.00 Z"/>
</g>
<g fill="#E2E5EA" fill-opacity="1.00" stroke="None">
<path d="
M 318.00 320.00 
C 317.14 318.60 315.55 318.91 314.00 319.00
C 305.24 319.20 304.37 333.15 312.33 335.67 C 320.29 338.19 329.17 329.97 325.00 322.00
C 321.08 329.81 312.64 329.42 318.00 320.00 Z"/>
</g>
<g fill="#35AFEE" fill-opacity="1.00" stroke="None">
<path d="
M 262.00 370.00 
C 269.41 369.54 273.25 361.79 266.08 358.92 C 258.91 356.05 251.98 354.78 245.08 357.08 C 238.18 359.37 235.13 363.63 233.00 370.00 C 230.88 376.36 239.60 382.55 243.32 384.68 C 247.05 386.81 263.36 386.31 258.22 393.22 C 253.08 400.14 244.70 388.20 239.25 389.25 C 233.79 390.29 229.95 398.58 237.77 401.23 C 245.59 403.87 250.57 405.44 258.00 404.00 C 265.42 402.56 269.89 400.87 273.02 394.02 C 276.16 387.18 272.23 381.00 267.07 376.93 C 261.92 372.85 252.73 375.49 248.26 370.75 C 243.79 366.00 261.21 363.19 262.00 370.00 Z"/>
</g>
<g fill="#9AD3F0" fill-opacity="1.00" stroke="None">
<path d="
M 294.00 403.00 
C 291.62 399.60 295.09 392.32 294.00 388.00 C 292.91 383.68 294.54 377.78 294.00 373.00 C 293.46 368.22 294.40 361.92 294.00 357.00
C 298.33 357.00 302.67 357.00 307.00 357.00
C 303.37 353.37 290.97 355.35 293.00 362.00 C 295.03 368.65 291.17 376.91 293.00 383.00 C 294.83 389.09 289.69 398.69 294.00 403.00 Z"/>
</g>
<g fill="#36AFEE" fill-opacity="1.00" stroke="None">
<path d="
M 369.00 366.00 
C 369.50 365.29 369.40 358.82 369.00 358.00
C 362.28 353.57 352.40 357.09 344.00 356.00 C 335.60 354.91 323.82 354.88 328.00 367.00
C 332.33 367.00 336.67 367.00 341.00 367.00
C 339.64 376.76 342.81 382.88 341.00 393.00 C 339.19 403.12 345.84 406.38 356.00 404.00
C 356.00 391.67 356.00 379.33 356.00 367.00
C 359.72 365.96 366.19 368.81 369.00 366.00 Z"/>
</g>
<g fill="#32AEEE" fill-opacity="1.00" stroke="None">
<path d="
M 157.00 385.00 
C 155.44 377.03 151.57 373.85 150.78 365.22 C 149.99 356.60 141.43 355.47 133.00 357.00
C 137.04 372.95 143.46 388.21 148.00 404.00
C 162.20 408.90 166.45 396.42 169.02 386.02 C 171.60 375.63 175.91 367.35 178.00 357.00
C 159.26 351.73 163.40 375.00 157.00 385.00 Z"/>
</g>
<g fill="#29ACEE" fill-opacity="1.00" stroke="None">
<path d="
M 212.00 357.00 
C 207.33 357.00 202.67 357.00 198.00 357.00
C 198.00 372.67 198.00 388.33 198.00 404.00
C 202.67 404.00 207.33 404.00 212.00 404.00
C 212.00 388.33 212.00 372.67 212.00 357.00 Z"/>
</g>
<g fill="#29ACEE" fill-opacity="1.00" stroke="None">
<path d="
M 294.00 403.00 
C 297.67 405.30 303.50 403.36 308.00 404.00
C 306.81 397.13 309.58 386.49 308.00 380.00 C 306.42 373.51 311.50 361.50 307.00 357.00
C 302.67 357.00 298.33 357.00 294.00 357.00
C 294.40 361.92 293.46 368.22 294.00 373.00 C 294.54 377.78 292.91 383.68 294.00 388.00 C 295.09 392.32 291.62 399.60 294.00 403.00 Z"/>
</g>
<g fill="#A4D6EF" fill-opacity="1.00" stroke="None">
<path d="
M 369.00 366.00 
C 370.78 364.22 370.35 359.87 369.00 358.00
C 369.40 358.82 369.50 365.29 369.00 366.00 Z"/>
</g>
<g fill="#BB438A" fill-opacity="1.00" stroke="None">
<path d="
M 192.00 431.00 
C 158.38 424.04 145.26 473.36 177.93 484.07 C 210.60 494.79 223.87 437.60 192.00 431.00
M 185.00 433.00 
C 213.81 433.08 215.66 481.78 185.00 482.00 C 154.33 482.22 154.58 432.91 185.00 433.00 Z"/>
</g>
<g fill="#BB448A" fill-opacity="1.00" stroke="None">
<path d="
M 246.00 431.00 
C 237.41 426.56 227.86 432.46 230.00 441.00 C 232.14 449.54 229.03 458.10 230.00 466.00 C 230.98 473.90 233.04 478.95 239.77 482.23 C 246.51 485.51 254.12 485.87 260.98 483.98 C 267.83 482.08 272.93 479.14 274.67 471.67 C 276.41 464.20 276.02 456.46 276.00 448.00 C 275.98 439.54 278.57 430.20 267.00 431.00 C 255.43 431.80 262.30 441.36 260.00 449.00 C 257.70 456.64 265.44 467.16 256.00 471.00 C 246.56 474.84 248.39 458.93 248.00 454.00 C 247.61 449.06 250.85 433.50 246.00 431.00
M 245.00 434.00 
C 247.96 443.92 237.45 474.09 254.00 474.00 C 270.56 473.90 260.02 444.00 263.00 434.00
C 266.33 434.00 269.67 434.00 273.00 434.00
C 272.13 453.22 279.73 481.56 253.00 482.00 C 226.27 482.44 232.47 453.37 232.00 434.00
C 236.33 434.00 240.67 434.00 245.00 434.00 Z"/>
</g>
<g fill="#BB4389" fill-opacity="1.00" stroke="None">
<path d="
M 327.00 445.00 
C 334.62 444.99 341.21 447.16 341.00 438.00 C 340.79 428.84 335.46 431.27 328.00 431.00 C 320.54 430.73 314.45 431.33 307.00 431.00 C 299.55 430.67 294.75 430.26 295.00 439.00 C 295.25 447.74 302.06 444.48 309.00 445.00
C 307.93 455.62 310.42 466.40 309.00 477.00 C 307.58 487.60 328.43 487.58 327.00 477.00 C 325.57 466.42 328.07 455.60 327.00 445.00
M 339.00 434.00 
C 342.85 447.27 322.07 437.34 324.00 450.00 C 325.93 462.66 322.55 469.84 324.00 482.00
C 320.00 482.00 316.00 482.00 312.00 482.00
C 308.69 468.38 321.78 437.03 298.00 442.00
C 295.09 430.87 306.34 434.27 314.00 434.00 C 321.66 433.73 331.17 434.20 339.00 434.00 Z"/>
</g>
<g fill="#EEECED" fill-opacity="1.00" stroke="None">
<path d="
M 185.00 433.00 
C 154.58 432.91 154.33 482.22 185.00 482.00 C 215.66 481.78 213.81 433.08 185.00 433.00
M 188.00 441.00 
C 200.72 444.98 194.86 479.68 181.00 474.00 C 167.14 468.32 174.70 436.84 188.00 441.00 Z"/>
</g>
<g fill="#ECEAEB" fill-opacity="1.00" stroke="None">
<path d="
M 245.00 434.00 
C 240.67 434.00 236.33 434.00 232.00 434.00
C 232.47 453.37 226.27 482.44 253.00 482.00 C 279.73 481.56 272.13 453.22 273.00 434.00
C 269.67 434.00 266.33 434.00 263.00 434.00
C 260.02 444.00 270.56 473.90 254.00 474.00 C 237.45 474.09 247.96 443.92 245.00 434.00 Z"/>
</g>
<g fill="#E9E9E9" fill-opacity="1.00" stroke="None">
<path d="
M 339.00 434.00 
C 331.17 434.20 321.66 433.73 314.00 434.00 C 306.34 434.27 295.09 430.87 298.00 442.00
C 321.78 437.03 308.69 468.38 312.00 482.00
C 316.00 482.00 320.00 482.00 324.00 482.00
C 322.55 469.84 325.93 462.66 324.00 450.00 C 322.07 437.34 342.85 447.27 339.00 434.00 Z"/>
</g>
<g fill="#BC458B" fill-opacity="1.00" stroke="None">
<path d="
M 188.00 441.00 
C 174.70 436.84 167.14 468.32 181.00 474.00 C 194.86 479.68 200.72 444.98 188.00 441.00
M 188.00 444.00 
C 193.07 446.24 190.39 456.41 191.00 461.00 C 191.61 465.59 189.28 475.00 181.93 471.07 C 174.57 467.14 175.71 438.56 188.00 444.00 Z"/>
</g>
<g fill="#EEECED" fill-opacity="1.00" stroke="None">
<path d="
M 188.00 444.00 
C 175.71 438.56 174.57 467.14 181.93 471.07 C 189.28 475.00 191.61 465.59 191.00 461.00 C 190.39 456.41 193.07 446.24 188.00 444.00 Z"/>
</g>
</svg>